<?xml version="1.0" encoding="utf-8"?>
<!-- Generator: Adobe Illustrator 19.2.1, SVG Export Plug-In . SVG Version: 6.00 Build 0)  -->
<!DOCTYPE svg PUBLIC "-//W3C//DTD SVG 1.1//EN" "http://www.w3.org/Graphics/SVG/1.1/DTD/svg11.dtd">
<svg version="1.1" id="Layer_1" xmlns="http://www.w3.org/2000/svg" xmlns:xlink="http://www.w3.org/1999/xlink" x="0px" y="0px"
	 viewBox="0 0 1478 363" enable-background="new 0 0 1478 363" xml:space="preserve">
<path fill="#FFFFFF" d="M1121.8,334.7c-0.8,0-1.6,0-2.5,0c0.6,1.4,1.2,2.8,2,4.1C1121.4,337.4,1121.6,336.1,1121.8,334.7z
	 M1128.6,334.6c-2,0-4,0.1-5.9,0.1c-0.2,1.4-0.4,2.9-0.5,4.4c1.6,0,3.1,0,4.7,0C1127.3,337.5,1127.9,336,1128.6,334.6L1128.6,334.6z
	 M1136.2,334.5c-2.2,0-4.5,0.1-6.7,0.1c-0.1,0.2-0.2,0.4-0.3,0.6c-0.5,1.3-1.1,2.5-1.5,3.8c2,0,4,0,6,0
	C1134.5,337.5,1135.3,335.9,1136.2,334.5L1136.2,334.5z M1145.7,334.3l-8.6,0.1c-0.9,1.5-1.7,3-2.5,4.6c2.5,0,5,0,7.5,0
	C1143.3,337.4,1144.5,335.9,1145.7,334.3L1145.7,334.3z M1155.7,334.2c-3,0-6,0.1-9.1,0.1c-1.2,1.6-2.4,3.1-3.6,4.7
	c2.8,0,5.6,0,8.4,0C1152.8,337.3,1154.2,335.7,1155.7,334.2L1155.7,334.2z M1164.7,337.7c1.5-1.1,2.9-2.3,4.1-3.7
	c-4,0-7.9,0.1-11.9,0.1c-1,1.1-2,2.2-3,3.3c-0.4,0.5-0.8,1-1.2,1.5c3.4,0,6.8,0,10.2,0C1163.5,338.5,1164.1,338.1,1164.7,337.7
	L1164.7,337.7z M1180.3,334L1170,334c-1.5,1.6-3.1,3.1-4.9,4.4l-0.7,0.5c3.5,0,6.9,0,10.4,0C1176.5,337.2,1178.4,335.6,1180.3,334
	L1180.3,334z M1191.9,337c1.8-1.1,3.7-2.1,5.5-3.1c-5.3,0-10.6,0.1-15.9,0.1c-1.9,1.6-3.8,3.3-5.6,5c4.3,0,8.5,0,12.8,0
	C1189.8,338.2,1190.8,337.6,1191.9,337L1191.9,337z M1208.7,337.1c2.3-1.1,4.6-2.1,6.9-3.4c-5.5,0-11,0-16.5,0.1
	c-2.9,1.8-5.9,3.3-8.8,5.1c4.9,0,9.8,0,14.8,0C1206.2,338.3,1207.5,337.7,1208.7,337.1L1208.7,337.1z M1233.4,333.7
	c-5.4,0-10.9,0-16.3,0c-0.9,0.6-1.9,1.1-2.8,1.6c-2.4,1.2-4.9,2.3-7.4,3.5h16.8C1226.9,337.2,1230.2,335.5,1233.4,333.7
	L1233.4,333.7z M1247.3,338.9c3.9-1.6,7.7-3.3,11.5-5.1c-7.5,0-15.1,0-22.6,0h-1c-0.1,0.1-0.3,0.2-0.4,0.2c-3.1,1.7-6.2,3.3-9.3,4.9
	L1247.3,338.9L1247.3,338.9z M1308.5,334.1c-7.6-0.1-15.2-0.1-22.8-0.2c-1.6,0.7-3.2,1.4-4.8,2c-2.6,1-5.1,2-7.7,3l24,0
	C1301,337.4,1304.8,335.8,1308.5,334.1L1308.5,334.1z M1349.7,334.7c-5.3-0.1-10.7-0.2-16-0.2c-2.7,1.6-5.5,3.1-8.3,4.6
	c6.2,0,12.4,0,18.6,0.1C1345.9,337.7,1347.8,336.2,1349.7,334.7L1349.7,334.7z M1364.4,334.9c-4.5-0.1-9-0.2-13.5-0.2
	c-1.8,1.5-3.7,3-5.6,4.4c4.8,0,9.7,0,14.5,0.1C1361.4,337.8,1363,336.4,1364.4,334.9L1364.4,334.9z M1381,335.2
	c-1.2,0-2.5-0.1-3.7-0.1c-1,1.4-2.1,2.7-3.3,4c1.8,0,3.6,0,5.3,0C1380,337.9,1380.5,336.6,1381,335.2L1381,335.2z M1376.2,335.1
	l-10.7-0.2c-1.4,1.4-2.9,2.8-4.4,4.1c3.9,0,7.8,0,11.7,0C1374,337.8,1375.2,336.5,1376.2,335.1L1376.2,335.1z M1332.2,334.4
	c-7.2-0.1-14.4-0.2-21.6-0.3c-1.4,0.6-2.9,1.2-4.3,1.9c-2.3,1-4.6,2-6.9,2.9c8,0,16,0,24,0.1C1326.4,337.6,1329.3,336,1332.2,334.4
	L1332.2,334.4z M1279.3,335.7c1.4-0.6,2.9-1.2,4.3-1.8c-7.7-0.1-15.3-0.1-23-0.1c-1.6,0.8-3.3,1.6-4.9,2.3c-2.1,0.9-4.2,1.9-6.3,2.8
	c7.2,0,14.4,0,21.6,0C1273.8,337.8,1276.5,336.8,1279.3,335.7L1279.3,335.7z M1117.8,328.7h-0.2c0.1,0.3,0.1,0.6,0.2,0.9
	C1117.8,329.3,1117.8,329,1117.8,328.7L1117.8,328.7z M1122.9,328.5c-1.4,0.1-2.9,0.1-4.3,0.2c-0.1,1.3-0.1,2.6,0,3.9
	c0.1,0.4,0.2,0.8,0.4,1.1l3-0.1C1122.2,331.9,1122.5,330.2,1122.9,328.5L1122.9,328.5z M1122.8,333.6c2.1-0.1,4.2-0.1,6.3-0.1l0-0.1
	c0.8-1.8,1.6-3.5,2.4-5.3l-7.6,0.3C1123.4,330.2,1123,331.9,1122.8,333.6L1122.8,333.6z M1150.4,327.6c-3,0.1-6.1,0.2-9.1,0.3
	c-1.2,1.8-2.4,3.6-3.5,5.5c2.9-0.1,5.9-0.1,8.8-0.1C1147.9,331.4,1149.2,329.5,1150.4,327.6L1150.4,327.6z M1157.9,332
	c1.6-1.6,3.3-3.1,4.9-4.7c-3.8,0.1-7.5,0.2-11.3,0.3c-0.1,0.1-0.2,0.3-0.3,0.4c-1.1,1.8-2.4,3.5-3.7,5.2c3.1-0.1,6.2-0.1,9.3-0.1
	C1157.2,332.7,1157.5,332.4,1157.9,332L1157.9,332z M1174.2,328.3c0.4-0.4,0.9-0.9,1.3-1.3c-3.9,0.1-7.8,0.1-11.7,0.2
	c-1,1.1-2.1,2.1-3.2,3.2c-0.9,0.9-1.8,1.7-2.7,2.6c4-0.1,7.9-0.1,11.9-0.1C1171.4,331.4,1172.7,329.8,1174.2,328.3L1174.2,328.3z
	 M1189.2,326.8c-4.1,0.1-8.2,0.1-12.4,0.2c-1.4,1.3-2.8,2.6-4.1,4c-0.6,0.6-1.2,1.3-1.8,1.9c3.5,0,7.1-0.1,10.6-0.1
	C1184.2,330.7,1186.7,328.8,1189.2,326.8L1189.2,326.8z M1204,329.4c1.3-1,2.7-1.9,4.1-2.8c-5.8,0.1-11.7,0.1-17.5,0.2
	c-2.6,2-5.1,3.9-7.6,6c5.5-0.1,10.9-0.1,16.4-0.1C1201,331.6,1202.5,330.5,1204,329.4L1204,329.4z M1222.7,329
	c1.3-0.9,2.7-1.7,4-2.5c-5.7,0-11.4,0.1-17.1,0.1c-2.9,1.9-5.7,4.1-8.6,6.1c5.5,0,11-0.1,16.5-0.1
	C1219.2,331.4,1220.9,330.1,1222.7,329L1222.7,329z M1243.7,328.1c1-0.6,2.1-1.1,3.1-1.7c-3.7,0-7.5,0-11.2,0c-2.5,0-4.9,0-7.3,0
	c-1.6,1-3.2,1.9-4.8,2.9s-3.1,2.1-4.6,3.1c5.6,0,11.2,0,16.8,0C1238.4,331.1,1241.1,329.6,1243.7,328.1L1243.7,328.1z M1262.4,332
	c3.6-1.8,7.4-3.4,11.2-4.8c0.5-0.2,1-0.4,1.5-0.5c-8.9-0.1-17.7-0.2-26.6-0.2c-3.7,2-7.4,4-11.1,6c8,0,15.9,0,23.9,0.1
	C1261.7,332.4,1262.1,332.2,1262.4,332L1262.4,332z M1298.3,327.1c-7-0.1-14-0.3-21.1-0.4c-3.2,1.3-6.6,2.2-9.8,3.7
	c-1.5,0.7-2.9,1.4-4.4,2.1c7.7,0,15.5,0.1,23.2,0.2C1290.3,331,1294.3,329.1,1298.3,327.1L1298.3,327.1z M1315.2,331.2
	c2.6-1.2,5.2-2.3,7.7-3.5c-7.6-0.2-15.2-0.4-22.8-0.5c-3.9,2-7.8,3.9-11.7,5.6c7.6,0.1,15.1,0.1,22.7,0.2
	C1312.4,332.4,1313.8,331.8,1315.2,331.2L1315.2,331.2z M1342,328.2c-5.7-0.2-11.3-0.4-17-0.5c-3.9,1.9-7.8,3.6-11.8,5.3
	c6.9,0.1,13.9,0.2,20.8,0.3C1336.7,331.7,1339.4,330,1342,328.2L1342,328.2z M1356.5,328.7c-4.4-0.2-8.8-0.3-13.2-0.5
	c-0.1,0.1-0.3,0.2-0.4,0.3c-2.4,1.6-4.9,3.3-7.5,4.8c5.2,0.1,10.3,0.2,15.5,0.3C1352.8,332,1354.7,330.4,1356.5,328.7L1356.5,328.7z
	 M1369.6,329.2c-4-0.2-8-0.3-11.9-0.5c-1.8,1.6-3.7,3.3-5.5,4.9c4.4,0.1,8.8,0.2,13.2,0.3C1366.8,332.4,1368.3,330.9,1369.6,329.2
	L1369.6,329.2z M1380.1,329.7c-3.2-0.1-6.3-0.3-9.4-0.4c-1.3,1.6-2.7,3.2-4.2,4.7c3.5,0.1,7,0.2,10.4,0.2
	C1378,332.7,1379.1,331.2,1380.1,329.7L1380.1,329.7z M1382.3,329.8c-0.4,0-0.9,0-1.3-0.1c-1,1.6-2,3.1-3.1,4.5
	c1.1,0,2.2,0.1,3.3,0.1C1381.7,332.9,1382,331.5,1382.3,329.8L1382.3,329.8z M1140.3,327.9c-2.7,0.1-5.3,0.2-8,0.3
	c-0.8,1.8-1.6,3.6-2.4,5.3l6.9-0.1C1137.9,331.5,1139.1,329.7,1140.3,327.9L1140.3,327.9z M1154.7,294.9c4.4-0.4,8.7-0.8,13.1-1.1
	c1.3-1.3,2.7-2.7,4.1-3.9c2-1.9,4-3.6,6.1-5.4c-4.7,0.4-9.3,0.8-14,1.2C1160.8,288.6,1157.7,291.7,1154.7,294.9L1154.7,294.9z
	 M1169.1,293.7c4.5-0.4,9.1-0.7,13.6-0.9c3.4-3.2,7-6.4,10.6-9.3c-4.7,0.3-9.3,0.6-14,0.9C1175.8,287.3,1172.4,290.4,1169.1,293.7
	L1169.1,293.7z M1348.9,290.7c-4.7-0.7-9.4-1.3-14.2-2c-2.5,2.6-5.1,5-8,7.1c5.1,0.5,10.3,1.1,15.4,1.7
	C1344.5,295.4,1346.8,293.1,1348.9,290.7L1348.9,290.7z M1370.2,301.2c2.9,0.4,5.8,0.9,8.6,1.3c-1.9-2.3-4.1-4.3-6.5-6
	c-0.4,1.2-1,2.4-1.5,3.6L1370.2,301.2z M1361,299.9c2.8,0.4,5.6,0.8,8.4,1.2c0.9-1.6,1.6-3.3,2.2-5.1c-1.2-0.8-2.5-1.6-3.9-2.4
	c-0.6-0.1-1.2-0.2-1.8-0.3c-0.4,0.7-0.8,1.5-1.3,2.1C1363.5,297.1,1362.3,298.6,1361,299.9L1361,299.9z M1343.2,297.6
	c5.6,0.7,11.2,1.4,16.8,2.1c1.2-1.3,2.4-2.6,3.4-4c0.6-0.8,1.1-1.7,1.6-2.6c-5-0.8-10.1-1.7-15.2-2.4
	C1347.8,293.3,1345.6,295.5,1343.2,297.6L1343.2,297.6z M1304.5,293.9c7,0.5,14,1.2,21,1.9c2.9-2.2,5.6-4.5,8.2-7.1
	c-6.5-0.8-13-1.6-19.5-2.3C1310.9,288.9,1307.8,291.4,1304.5,293.9L1304.5,293.9z M1282.9,292.4c6.8,0.4,13.6,0.8,20.3,1.3
	c1.5-1.1,2.9-2.2,4.3-3.3c1.8-1.4,3.6-2.9,5.4-4.3c-5.7-0.6-11.3-1.1-17-1.5C1291.6,287.2,1287.2,289.9,1282.9,292.4L1282.9,292.4z
	 M1263.9,290.5l-1.6,1.1c6.3,0.2,12.7,0.4,19.1,0.8c2.2-1.3,4.4-2.6,6.6-3.9c2.2-1.3,4.3-2.6,6.5-3.9c-6.3-0.5-12.5-0.9-18.8-1.2
	C1271.6,285.6,1267.7,288.1,1263.9,290.5L1263.9,290.5z M1247.8,286.6c-2.9,1.4-5.8,3-8.6,4.6c7.1,0,14.3,0.2,21.4,0.4
	c2.6-1.7,5.3-3.4,8-5c1.8-1.1,3.6-2.2,5.5-3.3c-5.8-0.3-11.5-0.5-17.3-0.7C1253.8,283.8,1250.8,285.1,1247.8,286.6L1247.8,286.6z
	 M1234.2,282.2c-1.2,0.6-2.4,1.2-3.5,1.9c-3.6,2.2-7.2,4.6-10.6,7.1c5-0.1,9.9-0.1,14.9-0.1c0.9,0,1.7,0,2.6,0
	c5.5-3.3,11.2-6.2,17.2-8.7c-6.6-0.2-13.2-0.3-19.7-0.3L1234.2,282.2L1234.2,282.2z M1199.7,291.9c6.3-0.2,12.7-0.4,19-0.6
	c4.2-3.2,8.6-6.2,13.2-8.8c0.2-0.1,0.3-0.2,0.5-0.2c-6.8,0-13.6,0.1-20.5,0.4C1207.7,285.4,1203.6,288.6,1199.7,291.9L1199.7,291.9z
	 M1184,292.7c4.8-0.3,9.6-0.5,14.3-0.7c3.2-2.7,6.4-5.3,9.8-7.7c0.8-0.5,1.5-1.1,2.3-1.6c-5.2,0.2-10.5,0.4-15.7,0.7
	C1191,286.3,1187.5,289.4,1184,292.7L1184,292.7z M1139.2,296.5c4.8-0.5,9.5-1,14.3-1.5c2.9-3.2,6-6.3,9.1-9.2
	c-5.3,0.5-10.6,1.1-15.9,1.8C1144.1,290.4,1141.6,293.4,1139.2,296.5L1139.2,296.5z M1138.1,296.6c2.3-3.1,4.8-6.1,7.4-8.9
	c-4,0.5-8,1-12,1.6c-0.2,0.1-0.3,0.2-0.5,0.3c-2.1,2.6-4.1,5.4-5.8,8.3C1130.9,297.5,1134.5,297.1,1138.1,296.6L1138.1,296.6z
	 M1130.9,291c-3,2.1-5.6,4.6-7.9,7.5c1.1-0.1,2.1-0.3,3.2-0.4C1127.6,295.6,1129.2,293.3,1130.9,291L1130.9,291z M1118.6,320.6
	l-1.8,0.1c0,2.4,0.2,4.7,0.6,7c0.1,0,0.3,0,0.4,0C1118,325.3,1118.3,322.9,1118.6,320.6L1118.6,320.6z M1119.1,323.5
	c-0.2,1.3-0.3,2.7-0.4,4.1l4.5-0.2c0.6-2.5,1.3-4.9,2.2-7.3c-2,0.1-3.9,0.2-5.9,0.4C1119.3,321.5,1119.2,322.5,1119.1,323.5
	L1119.1,323.5z M1124,327.4l7.9-0.3c0.7-1.5,1.4-3.1,2.1-4.6c0.5-1,1-2,1.5-3c-3.1,0.2-6.2,0.4-9.3,0.6
	C1125.4,322.5,1124.6,324.9,1124,327.4L1124,327.4z M1134.1,324.3c-0.4,0.9-0.9,1.9-1.3,2.8c2.8-0.1,5.5-0.2,8.3-0.3
	c0.4-0.6,0.8-1.2,1.3-1.8c1.4-2,2.9-4,4.4-6c-3.4,0.2-6.9,0.3-10.3,0.5C1135.6,321.1,1134.8,322.7,1134.1,324.3L1134.1,324.3z
	 M1153,324c1.5-1.9,3-3.7,4.6-5.5c-3.3,0.1-6.6,0.3-9.9,0.4c-1.9,2.6-3.9,5.2-5.7,7.9c3-0.1,6.1-0.2,9.1-0.3
	C1151.8,325.6,1152.4,324.8,1153,324L1153,324z M1164.3,325.7c2.5-2.6,4.9-5.2,7.4-7.8c-4.3,0.1-8.7,0.3-13,0.5
	c-2.3,2.5-4.5,5.2-6.5,8.1c3.9-0.1,7.8-0.2,11.7-0.3C1164,326,1164.2,325.9,1164.3,325.7L1164.3,325.7z M1194.5,322.8
	c2.5-1.9,4.9-3.8,7.4-5.7c-4.6,0.1-9.2,0.2-13.8,0.3c-2,1.7-4,3.5-6.1,5.2c-1.3,1.1-2.5,2.1-3.8,3.2c4.2-0.1,8.4-0.2,12.6-0.2
	C1192.1,324.6,1193.3,323.7,1194.5,322.8L1194.5,322.8z M1214.8,322.1c2.6-1.7,5.1-3.5,7.6-5.3c-6.3,0-12.7,0.1-19,0.2
	c-3.7,2.9-7.4,5.7-11.2,8.5c5.9-0.1,11.8-0.2,17.7-0.2C1211.5,324.3,1213.2,323.2,1214.8,322.1L1214.8,322.1z M1233.4,322.5
	c3-1.8,5.9-3.7,8.8-5.7c-2.3,0-4.6,0-6.8,0c-3.9,0-7.8,0-11.6,0c-1.2,0.8-2.3,1.6-3.5,2.5c-2.9,2.1-5.9,4.1-8.9,6.1
	c5.8-0.1,11.5-0.1,17.3-0.1C1230.3,324.3,1231.8,323.4,1233.4,322.5L1233.4,322.5z M1249.1,325.3c5.5-2.9,11-5.6,16.6-8.3
	c-7.3-0.1-14.6-0.2-21.9-0.2c-3.2,2.1-6.3,4.1-9.5,6.1c-1.3,0.8-2.6,1.6-3.9,2.3h5.4C1240.2,325.2,1244.7,325.3,1249.1,325.3
	L1249.1,325.3z M1301.8,325.3c4.3-2.2,8.5-4.5,12.7-6.9c-7.7-0.3-15.4-0.6-23.2-0.8c-0.8,0.5-1.5,1-2.2,1.5c-3,2.1-9.7,6.4-9.7,6.4
	c6.9,0.1,14.2,0.3,21.1,0.4C1300.9,325.7,1301.4,325.5,1301.8,325.3L1301.8,325.3z M1336.9,319.8c0.1-0.1,0.3-0.2,0.4-0.3
	c-7.1-0.4-14.2-0.7-21.3-1c-4.4,2.6-8.8,5-13.3,7.3c-0.1,0.1-0.3,0.1-0.4,0.2c7.6,0.2,15.2,0.4,22.9,0.6
	C1329.2,324.6,1333.1,322.4,1336.9,319.8L1336.9,319.8z M1348.5,323.5c1.3-1,2.7-2.1,4-3.2c-4.6-0.3-9.2-0.5-13.8-0.8
	c-2.9,2.1-5.9,4-9,5.7c-0.9,0.5-1.8,0.9-2.7,1.4c5.5,0.2,10.9,0.4,16.4,0.6C1345.2,326,1346.8,324.8,1348.5,323.5L1348.5,323.5z
	 M1366,321.2c-1.8,1.7-3.6,3.3-5.4,4.9c-0.6,0.5-1.2,1.1-1.8,1.6c3.9,0.1,7.7,0.3,11.6,0.5c1.7-2.1,3.2-4.2,4.7-6.4
	C1372.1,321.7,1369,321.4,1366,321.2L1366,321.2z M1383,326.4c-0.4,0.8-0.9,1.6-1.4,2.4c0.3,0,0.6,0,0.9,0
	C1382.7,328.1,1382.8,327.3,1383,326.4L1383,326.4z M1383.5,323.6c0.1-0.4,0.1-0.7,0.2-1.1c-2.5-0.2-5.1-0.4-7.6-0.6
	c-1.5,2.2-3,4.3-4.7,6.4c3.1,0.1,6.2,0.3,9.3,0.4c1-1.6,1.9-3.3,2.8-5C1383.5,323.7,1383.5,323.6,1383.5,323.6L1383.5,323.6z
	 M1360,325.6c1.6-1.4,3.2-2.9,4.8-4.4c-3.7-0.2-7.4-0.5-11.1-0.7c-2.9,2.4-5.9,4.7-9,6.8c4.3,0.2,8.6,0.3,12.8,0.5L1360,325.6z
	 M1290.1,317.6c-7.5-0.2-15-0.4-22.5-0.5c-3.2,1.6-6.4,3-9.6,4.6c-2.4,1.2-4.8,2.4-7.2,3.7c9.1,0,17.4,0.1,26.5,0.2
	c0.1-0.1,0-0.1-0.2-0.1c2.4-1.3,4.8-2.8,7-4.4C1285.8,319.7,1288.2,318.8,1290.1,317.6L1290.1,317.6z M1183.8,320c1-0.8,2-1.7,3-2.5
	c-4.6,0.1-9.2,0.3-13.8,0.4c-2.6,2.8-5.3,5.5-7.9,8.3c3.9-0.1,7.9-0.2,11.8-0.3C1179.1,323.8,1181.5,321.9,1183.8,320L1183.8,320z
	 M1151.1,282.1c-5.2,1.4-10.3,3.3-15.1,5.8c3.5-0.5,7.1-1,10.7-1.4C1148.1,285,1149.6,283.5,1151.1,282.1L1151.1,282.1z M1148,286.3
	c5.4-0.7,10.7-1.3,16.1-1.8c2.5-2.2,5.1-4.4,7.8-6.4c-6.4,0.7-12.8,1.9-19.1,3.5C1151.2,283.1,1149.5,284.7,1148,286.3L1148,286.3z
	 M1179.5,283.1c2.7-2.2,5.4-4.4,8.1-6.4c-4.9,0.3-9.6,0.7-14.1,1.2c-2.8,2-5.5,4.2-8.1,6.5C1170.1,283.9,1174.8,283.5,1179.5,283.1
	L1179.5,283.1z M1194.9,282.1c2.6-2.1,5.3-4.1,8.1-6c-4.7,0.1-9.4,0.2-13.9,0.5c-2.8,2.1-5.5,4.2-8.2,6.4
	C1185.6,282.7,1190.3,282.4,1194.9,282.1L1194.9,282.1z M1196.4,282c5.3-0.3,10.6-0.5,15.9-0.7c1.9-1.2,3.8-2.4,5.8-3.5
	c1-0.6,2-1.1,3.1-1.7c-3.6-0.1-7.1-0.1-10.5-0.1c-2.1,0-4.1,0-6.1,0c-0.8,0.5-1.5,1-2.3,1.5C1200.3,279.1,1198.3,280.6,1196.4,282
	L1196.4,282z M1213.9,281.3c6.9-0.2,13.9-0.3,20.8-0.3c3.2-1.5,6.4-2.9,9.7-4.1c-7.1-0.3-14.2-0.6-21.1-0.7
	c-1.1,0.4-2.2,0.9-3.2,1.4C1218,278.8,1215.9,280,1213.9,281.3L1213.9,281.3z M1364.7,292.2c-4-1.9-8.2-3.4-12.4-4.6
	c-0.6,0.8-1.1,1.6-1.7,2.3C1355.3,290.6,1360,291.4,1364.7,292.2L1364.7,292.2z M1349.7,289.8c0.6-0.8,1.2-1.6,1.8-2.4
	c-4.1-1.2-8.5-2.2-13.1-3.1c-0.9,1.2-1.8,2.4-2.8,3.5C1340.3,288.4,1345,289.1,1349.7,289.8L1349.7,289.8z M1334.6,287.6
	c1-1.1,2-2.3,2.9-3.5c-5.5-1-11.2-1.9-17.2-2.6c-1.7,1.2-3.3,2.5-4.9,3.8C1321.8,286,1328.2,286.8,1334.6,287.6L1334.6,287.6z
	 M1314.2,285.2c1.6-1.3,3.2-2.6,4.9-3.8c-4.8-0.6-9.8-1-14.9-1.4c-2.2,1.2-4.4,2.4-6.6,3.6C1303.2,284.1,1308.7,284.6,1314.2,285.2
	L1314.2,285.2z M1296.2,283.5c2.1-1.2,4.3-2.5,6.5-3.6c-5.8-0.4-11.8-0.8-17.7-1.1c-2.5,1-4.9,2.2-7.3,3.4
	C1283.8,282.6,1290,283,1296.2,283.5L1296.2,283.5z M1276.1,282.2c2.3-1.2,4.6-2.4,7-3.5c-4.5-0.2-9-0.4-13.4-0.6
	c-3.3,1-6.7,2.1-9.9,3.4C1265.2,281.6,1270.6,281.9,1276.1,282.2L1276.1,282.2z M1257.6,281.4c3.2-1.2,6.4-2.4,9.7-3.4
	c-5.7-0.2-11.3-0.5-16.8-0.8l-3.8-0.2c-3.4,1.2-6.7,2.5-10,4C1243.7,281,1250.6,281.2,1257.6,281.4L1257.6,281.4z M1125.1,300.1
	c0.2-0.3,0.3-0.6,0.5-0.9c-1.1,0.1-2.3,0.3-3.4,0.4c-1.1,1.6-2,3.3-2.8,5.1c1.2-0.1,2.5-0.3,3.7-0.4
	C1123.8,302.9,1124.4,301.5,1125.1,300.1L1125.1,300.1z M1124.2,303.8c-0.1,0.1-0.1,0.2-0.2,0.4c3.2-0.4,6.4-0.7,9.6-1
	c1.1-1.8,2.3-3.6,3.6-5.3c-3.5,0.4-7.1,0.8-10.6,1.3C1125.8,300.6,1125,302.2,1124.2,303.8L1124.2,303.8z M1134.7,303
	c4.3-0.4,8.7-0.9,13-1.2c1.5-1.9,3.1-3.7,4.7-5.6c-4.7,0.4-9.4,0.9-14.1,1.4C1137.1,299.4,1135.8,301.2,1134.7,303L1134.7,303z
	 M1148.9,301.7c4.2-0.4,8.3-0.7,12.5-1c1.7-1.9,3.5-3.8,5.3-5.7c-4.3,0.3-8.7,0.7-13,1.1C1152,297.9,1150.4,299.8,1148.9,301.7
	L1148.9,301.7z M1162.4,300.6c4.4-0.3,8.7-0.6,13.1-0.9c0.5-0.5,1-1,1.5-1.5c1.5-1.4,2.9-2.9,4.4-4.3c-4.5,0.3-9.1,0.6-13.6,0.9
	C1166,296.8,1164.2,298.7,1162.4,300.6L1162.4,300.6z M1176.7,299.7c4.6-0.3,9.2-0.5,13.8-0.7c2.1-2,4.2-3.9,6.3-5.8
	c-4.7,0.2-9.5,0.4-14.2,0.7C1180.7,295.8,1178.7,297.7,1176.7,299.7L1176.7,299.7z M1191.9,298.9c6-0.2,12-0.5,18-0.6
	c0.9-0.7,1.8-1.5,2.8-2.2c1.5-1.2,2.9-2.4,4.4-3.5c-6.3,0.1-12.6,0.3-18.8,0.6C1196.1,295,1194,296.9,1191.9,298.9L1191.9,298.9z
	 M1218.5,292.5c-2.4,1.9-4.8,3.8-7.2,5.7c5.2-0.1,10.4-0.2,15.6-0.2c2.4-1.6,4.8-3.2,7.3-4.8c0.5-0.3,0.9-0.6,1.4-0.9h-0.4
	C1229.6,292.4,1224.1,292.4,1218.5,292.5L1218.5,292.5z M1382.2,308.3c-0.6-1.4-1.3-2.7-2.2-4c-0.7,1.1-1.4,2.3-2.1,3.4
	C1379.3,307.9,1380.8,308.1,1382.2,308.3L1382.2,308.3z M1367.1,306.3c3.3,0.4,6.6,0.8,9.9,1.3c0.9-1.3,1.7-2.6,2.5-3.9
	c-3.3-0.5-6.5-1-9.8-1.5C1368.9,303.6,1368,304.9,1367.1,306.3L1367.1,306.3z M1360.1,300.8c-0.9,1-1.9,1.9-2.8,2.8
	c-0.4,0.4-0.9,0.9-1.3,1.3c3.4,0.4,6.9,0.8,10.3,1.2c0.9-1.3,1.8-2.7,2.6-4.1C1365.9,301.6,1363,301.2,1360.1,300.8L1360.1,300.8z
	 M1340.4,300.1c-1.1,1-2.2,1.9-3.3,2.9c5.9,0.6,11.8,1.2,17.8,1.9c0.2-0.1,0.3-0.3,0.4-0.4c1.2-1.2,2.6-2.4,3.8-3.7
	c-5.7-0.8-11.3-1.5-17-2.1C1341.6,299.1,1341,299.6,1340.4,300.1L1340.4,300.1z M1341,298.5c-5.2-0.6-10.4-1.1-15.6-1.6
	c-1.8,1.4-3.7,2.6-5.5,3.9c-0.3,0.2-0.7,0.4-1,0.7c5.8,0.5,11.5,1,17.2,1.5c1.3-1.2,2.7-2.4,4.1-3.6
	C1340.5,299,1340.8,298.7,1341,298.5L1341,298.5z M1300.1,297c-1.5,1-3,1.9-4.6,2.8c7.4,0.4,14.8,0.9,22.2,1.5
	c2.2-1.5,4.4-3,6.5-4.6c-7-0.7-14.1-1.3-21.1-1.8C1302.1,295.6,1301.1,296.3,1300.1,297L1300.1,297z M1278,295.2c-2,1.1-4,2.2-6,3.4
	c7.4,0.3,14.7,0.6,22.1,1c1.2-0.7,2.4-1.4,3.6-2.1c1.4-0.9,2.8-1.8,4.1-2.7c-6.9-0.5-13.8-0.9-20.8-1.3
	C1280,294.1,1279,294.7,1278,295.2L1278,295.2z M1252,298.1c6.2,0.1,12.3,0.3,18.5,0.5c2.9-1.7,5.9-3.4,8.9-5.1
	c-6.3-0.3-12.6-0.5-18.9-0.7C1257.6,294.5,1254.8,296.3,1252,298.1L1252,298.1z M1228.3,298c2.2,0,4.5,0,6.7,0
	c5.2,0,10.3,0,15.4,0.1c2.8-1.8,5.6-3.6,8.4-5.4c-7.2-0.2-14.4-0.3-21.7-0.3C1234.2,294.2,1231.2,296.1,1228.3,298L1228.3,298z
	 M1119.6,319.5c2-0.1,4.1-0.3,6.1-0.4c0.9-2.4,1.9-4.8,3-7.2c-2.6,0.2-5.1,0.4-7.7,0.7C1120.5,314.9,1120,317.2,1119.6,319.5
	L1119.6,319.5z M1126.7,319c3.2-0.2,6.3-0.4,9.5-0.6c1.4-2.6,3-5.1,4.7-7.5c-3.7,0.3-7.4,0.6-11,0.9
	C1128.6,314.2,1127.6,316.6,1126.7,319L1126.7,319z M1140,313.5c-1.1,1.6-2,3.2-2.9,4.8c3.5-0.2,7-0.4,10.5-0.6
	c1.9-2.6,3.9-5.2,5.9-7.7c-3.9,0.2-7.8,0.5-11.6,0.8C1141.2,311.8,1140.6,312.7,1140,313.5L1140,313.5z M1148.6,317.7
	c3.4-0.2,6.7-0.3,10.1-0.5c0.6-0.7,1.3-1.4,1.9-2.1c1.8-2,3.7-3.9,5.5-5.9c-3.8,0.2-7.7,0.4-11.5,0.7
	C1152.6,312.6,1150.6,315.2,1148.6,317.7L1148.6,317.7z M1167.4,309.3c-0.1,0.1-0.3,0.3-0.4,0.4c-2.4,2.5-4.8,5-7.2,7.5
	c4.4-0.2,8.7-0.4,13.1-0.5c2.6-2.7,5.2-5.4,7.8-8C1176.3,308.8,1171.8,309.1,1167.4,309.3L1167.4,309.3z M1193.8,311.4
	c1.4-1.1,2.8-2.3,4.2-3.4c-5.3,0.1-10.6,0.3-15.9,0.6c-2,2-4,4.1-6,6.1c-0.6,0.6-1.3,1.3-1.9,1.9c4.7-0.2,9.4-0.3,14.1-0.4
	C1190,314.6,1191.9,313,1193.8,311.4L1193.8,311.4z M1213.8,307.7c-4.8,0.1-9.7,0.2-14.5,0.3c-2.5,2-4.9,4-7.3,6
	c-0.8,0.7-1.7,1.4-2.5,2.1c4.7-0.1,9.3-0.2,14-0.3C1206.9,313.1,1210.3,310.4,1213.8,307.7L1213.8,307.7z M1244,315.6
	c0,0,0.1-0.1,0.1-0.1c3.9-2.6,7.9-5.2,11.8-7.8c-6.2-0.1-12.4-0.1-18.6-0.1c-4,2.6-8,5.3-11.9,8.1c3.3,0,6.6,0,9.9,0
	C1238.3,315.6,1241.2,315.6,1244,315.6L1244,315.6z M1277.9,310.5c1.1-0.7,2.2-1.5,3.2-2.2c-7.9-0.3-15.8-0.5-23.7-0.6
	c-0.6,0.4-1.1,0.7-1.7,1.1c-3.4,2.2-6.8,4.5-10.2,6.8c7.5,0,15,0.1,22.5,0.3C1271.5,314.3,1274.7,312.5,1277.9,310.5L1277.9,310.5z
	 M1295.2,314.4c3.1-1.7,6.2-3.4,9.2-5.1c-7.3-0.4-14.6-0.7-21.9-0.9c-0.7,0.5-1.5,1-2.2,1.5c-3.3,2.2-6.8,4.2-10.4,6
	c7.3,0.1,14.6,0.3,21.9,0.6C1292.9,315.8,1294,315.1,1295.2,314.4L1295.2,314.4z M1322.2,313.7c1.5-1,3-2,4.5-3.1
	c-6.9-0.5-13.9-0.9-20.8-1.2c-1.9,1.1-3.8,2.2-5.8,3.3c-2.3,1.3-4.7,2.5-6.9,3.9c7.7,0.2,15.4,0.5,23.1,0.9
	C1318.3,316.2,1320.3,314.9,1322.2,313.7L1322.2,313.7z M1323,314.1c-1.7,1.1-3.5,2.2-5.3,3.3c7,0.3,14,0.7,21,1.1
	c2.8-2,5.5-4.2,8.2-6.4c-6.3-0.5-12.7-1-19.1-1.4C1326.3,311.9,1324.7,313,1323,314.1L1323,314.1z M1360.3,313.3
	c-4.1-0.4-8.1-0.7-12.2-1.1c-2.6,2.2-5.3,4.4-8,6.4c4.5,0.3,9.1,0.5,13.6,0.8C1355.9,317.5,1358.2,315.4,1360.3,313.3L1360.3,313.3z
	 M1371.6,314.3c-3.4-0.3-6.8-0.7-10.2-1c-2,2.2-4.2,4.2-6.5,6.1c3.7,0.2,7.3,0.5,10.9,0.8C1367.8,318.4,1369.7,316.4,1371.6,314.3
	L1371.6,314.3z M1379.3,315.1l-6.8-0.7c-1.8,2.1-3.7,4-5.7,5.9c2.9,0.2,5.9,0.4,8.8,0.6C1377,319.1,1378.2,317.1,1379.3,315.1
	L1379.3,315.1z M1376.6,321c2.4,0.2,4.8,0.4,7.2,0.6c0.3-2,0.3-4,0.2-6l-3.8-0.4C1379.1,317.2,1377.9,319.1,1376.6,321L1376.6,321z
	 M1225.4,314.7c3.5-2.4,7-4.8,10.6-7.1h-0.4c-6.8,0-13.6,0.1-20.4,0.2c-3.1,2.4-6.1,4.9-9.2,7.3c-0.3,0.3-0.7,0.6-1,0.8
	c6.4-0.1,12.8-0.2,19.1-0.2C1224.5,315.3,1224.9,315,1225.4,314.7L1225.4,314.7z M1118.8,319.2c0.3-2.2,0.8-4.4,1.4-6.5
	c-1,0.1-2,0.2-3.1,0.3c-0.1,1.1-0.2,2.1-0.3,3.2c-0.1,1.2-0.1,2.4-0.1,3.5c0.7,0,1.3-0.1,2-0.1
	C1118.8,319.4,1118.8,319.3,1118.8,319.2L1118.8,319.2z M1122.7,305.4l-3.7,0.4c-0.8,2-1.3,4-1.7,6.1l3.2-0.3
	C1121.1,309.5,1121.8,307.4,1122.7,305.4L1122.7,305.4z M1121.4,311.5c2.6-0.2,5.3-0.5,7.9-0.7c1.1-2.2,2.3-4.4,3.6-6.6
	c-3.1,0.3-6.2,0.7-9.3,1C1122.8,307.3,1122,309.4,1121.4,311.5L1121.4,311.5z M1130.3,310.7c3.8-0.3,7.5-0.6,11.3-0.9
	c1.6-2.3,3.3-4.5,5.1-6.8l0.1-0.1c-4.3,0.4-8.5,0.8-12.8,1.2C1132.7,306.3,1131.4,308.5,1130.3,310.7L1130.3,310.7z M1156.2,308
	c-0.2,0.3-0.4,0.5-0.6,0.8c3.9-0.2,7.8-0.5,11.8-0.7c2.3-2.4,4.6-4.8,7-7.2c-4.3,0.2-8.6,0.5-12.9,0.8
	C1159.6,303.8,1157.8,305.9,1156.2,308L1156.2,308z M1168.5,308.1c4.5-0.2,8.9-0.5,13.4-0.6c2.4-2.4,4.8-4.9,7.3-7.2
	c-4.6,0.2-9.1,0.4-13.7,0.7C1173.2,303.3,1170.8,305.7,1168.5,308.1L1168.5,308.1z M1183.2,307.4c5.4-0.2,10.8-0.4,16.2-0.6
	c3-2.4,6-4.9,8.9-7.3c-5.9,0.2-11.9,0.4-17.8,0.6C1188.1,302.5,1185.7,304.9,1183.2,307.4L1183.2,307.4z M1200.8,306.8
	c4.9-0.1,9.7-0.2,14.6-0.3c3.2-2.5,6.5-4.9,9.8-7.2c-5.1,0-10.3,0.1-15.4,0.2C1206.8,301.9,1203.8,304.4,1200.8,306.8L1200.8,306.8z
	 M1373.3,313.6c2.2,0.2,4.3,0.4,6.5,0.7c0.9-1.7,1.8-3.3,2.7-5l-5.2-0.7C1376.1,310.3,1374.7,311.9,1373.3,313.6L1373.3,313.6z
	 M1383.9,314.7c-0.2-1.5-0.5-3-0.9-4.4c-0.7,1.4-1.4,2.7-2.2,4.1C1381.8,314.5,1382.8,314.6,1383.9,314.7L1383.9,314.7z
	 M1366.5,307.2c-1.3,1.8-2.8,3.6-4.3,5.3c3.4,0.3,6.8,0.7,10.2,1c1.4-1.6,2.8-3.3,4-5C1373.1,308,1369.8,307.6,1366.5,307.2
	L1366.5,307.2z M1355,305.8c-1.9,1.8-3.9,3.6-5.9,5.4c4,0.4,8,0.7,12,1.1c1.6-1.7,3-3.4,4.4-5.3
	C1362.1,306.6,1358.5,306.2,1355,305.8L1355,305.8z M1329.1,309.7c6.3,0.5,12.6,0.9,18.9,1.5c2-1.8,4-3.6,5.9-5.4
	c-6-0.7-11.9-1.2-17.9-1.8C1333.8,305.9,1331.5,307.8,1329.1,309.7L1329.1,309.7z M1335,303.8c-5.9-0.5-11.8-1-17.7-1.5
	c-3.2,2.1-6.4,4.1-9.7,6c6.8,0.4,13.6,0.8,20.4,1.3c1.3-1,2.6-2,3.8-3C1332.9,305.7,1334,304.8,1335,303.8L1335,303.8z M1290,303.1
	c-2,1.3-4,2.8-5.9,4.2c7.4,0.3,14.8,0.6,22.2,1l0.2-0.1c3.2-1.9,6.5-3.8,9.7-5.9c-7.5-0.6-15-1-22.4-1.4
	C1292.4,301.5,1291.2,302.3,1290,303.1L1290,303.1z M1259.3,306.5c7.8,0.2,15.6,0.4,23.4,0.6c1.6-1.2,3.2-2.3,4.9-3.5
	c1.5-1.1,3.1-2,4.7-3c-7.4-0.4-14.8-0.7-22.2-0.9C1266.5,302,1262.9,304.2,1259.3,306.5L1259.3,306.5z M1239.3,306.3
	c6.2,0,12.4,0.1,18.5,0.2c2.7-1.7,5.4-3.5,8.1-5.1c0.9-0.6,1.8-1.1,2.7-1.6c-6.1-0.2-12.3-0.3-18.4-0.4
	C1246.5,301.6,1242.9,304,1239.3,306.3L1239.3,306.3z M1226.5,299.2c-0.2,0.1-0.3,0.2-0.5,0.3c-3.2,2.2-6.3,4.5-9.4,6.9
	c6.3-0.1,12.6-0.1,18.8-0.1h2.2c3.1-2,6.3-4.1,9.4-6.1c0.5-0.3,1-0.6,1.5-0.9c-4.5-0.1-9.1-0.1-13.6-0.1
	C1232.2,299.2,1229.4,299.2,1226.5,299.2L1226.5,299.2z M1147,304c-1.5,1.9-2.9,3.8-4.3,5.7c3.9-0.3,7.8-0.6,11.7-0.8
	c1.9-2.4,3.9-4.7,5.9-7c-4.1,0.3-8.2,0.6-12.4,1C1147.6,303.3,1147.3,303.6,1147,304z M1478,363l-100.6-20.7c0.5-0.8,1-1.6,1.4-2.3
	h-5.7c-0.7,0.8-1.4,1.5-2.2,2.3h-1.2c0.8-0.7,1.5-1.5,2.2-2.3h-12c-0.9,0.8-1.9,1.5-2.9,2.3h-1.4c1-0.7,2-1.5,3-2.3h-14.8
	c-1.2,0.8-2.5,1.6-3.8,2.3h-1.8c1.4-0.7,2.7-1.4,4-2.3h-19.2c-1.7,0.8-3.4,1.6-5.2,2.3h-2.5c1.9-0.7,3.8-1.5,5.6-2.3h-24.4
	c-1.9,0.8-3.8,1.5-5.7,2.3h-2.3c0.5-0.2,0.9-0.4,1.4-0.5c1.5-0.6,2.9-1.1,4.3-1.7h-24.2c-1.9,0.7-3.7,1.5-5.6,2.3h-2.1
	c1.8-0.8,3.6-1.5,5.5-2.3h-21.4c-1.8,0.8-3.6,1.5-5.4,2.3h-2.1c1.8-0.8,3.6-1.5,5.4-2.3h-21.3c-1.4,0.8-2.9,1.5-4.4,2.3h-1.8
	c1.5-0.8,2.9-1.5,4.4-2.3h-16.9c-1.3,0.7-2.6,1.4-3.8,2.3h-1.4c1.1-0.8,2.3-1.6,3.5-2.3h-14.4c-1.1,0.7-2.1,1.5-3.1,2.3h-1.3
	c1-0.8,1.9-1.6,3-2.3h-12.2c-0.8,0.7-1.5,1.5-2.2,2.3h-1.1c0.7-0.8,1.4-1.5,2.2-2.3h-10.8c-0.9,0.7-1.8,1.4-2.6,2.3h-1.1
	c0.7-0.8,1.5-1.6,2.4-2.3h-9.6c-0.5,0.7-1,1.5-1.4,2.3h-1c0.4-0.8,0.8-1.5,1.3-2.3h-8.5c-0.5,0.7-1,1.5-1.5,2.3h-1
	c0.5-0.8,1-1.5,1.5-2.3h-7.2c-0.4,0.7-0.7,1.5-1,2.3h-0.9c0.3-0.8,0.6-1.5,1-2.3h-5.9c-0.2,0.8-0.4,1.5-0.6,2.3h-0.8
	c0.2-0.8,0.3-1.5,0.6-2.3h-4.3c0.5,0.8,1.1,1.5,1.8,2.3h-20.7V88.2c0-3.1-1.6-5.7-3.7-5.7h-49.5c-2,0-3.7,2.5-3.7,5.7V251h-0.3v91.3
	h-18v-194l-29.9-13.4l-0.9,1l-8.5-5.1l-0.6,1.7l-6.2-3.7l-3.2,2.6v20.6h-1.5v50.5h-21.8v-89.7l-20.6-11v6.8l-15.5-6.8l-13.1,22.1
	v218.6H865V342c8.6-1.7,16.3-5.2,21.3-12.1c0.6-0.9,1.2-1.8,1.7-2.8c2.9-5.1,2.9-12.4,2.6-19.4v-4.5h-48.9v5.6h-23.1v-43
	c0-0.7-1.5-1.3-3.8-1.6V261c2.4-0.6,3.8-1.3,3.8-2.2c0-0.2-0.1-0.3-0.1-0.4h0.1v-45.7h-1.1c0.7-0.5,1.1-1.3,1.2-2.1
	c0-1.6-1.9-3-4.9-4.1v-8c0-3.1-7.3-5.7-16.8-6v-10.8c0-0.9-1.5-1.6-3.5-1.6c-0.1,0-0.1,0-0.2,0V179c0-2.3-3.6-4.2-8-4.2
	s-8,1.9-8,4.2v0.4h-4.6c-1.2-1.8-4.2-3-7.8-3c-4.6,0-8.3,2.1-8.3,4.6v5.4h-0.8v-2c0-1.1-1.6-2-3.6-2s-3.6,0.9-3.6,2v12.1
	c-9.2,0.2-16.5,2.8-16.5,5.9v52.6c0,1.3,3,2.5,7.4,3.1v1.6c-4.3,0.4-7.4,1.3-7.4,2.4v80.4h-12l-5-175.4l0.2-0.9l0.4-0.6l4.5-3.2
	c4.2-0.4,7-1.3,7-2.8c0-1.2-1.8-2.2-4.7-3.1V153c2.8-0.8,4.6-1.9,4.6-3c0-1.2-1.8-2.3-4.7-3.1v-3.6c3-0.8,4.9-1.9,4.9-3.1
	c0-2-5.2-3.7-12.4-4.3v-1l0.2-0.6l0.4-0.5l5-4.2c4.1-0.5,6.7-1.5,6.7-3c0-0.2,0-0.3-0.1-0.5v-12.6c0-1.4-2.2-2.8-5.8-3.6
	c0.3-0.2,0.5-0.4,0.5-0.8c0-1.1-3-2-7.3-2.4v-6.4c4.3-0.6,7.3-1.9,7.3-3.4c0-0.2,0-0.3-0.1-0.5v-3.2h-0.3v2.7
	c-0.1-0.2-0.3-0.3-0.5-0.4v-3.7h-0.4v3.5c-0.2-0.1-0.5-0.3-0.8-0.4V91h-0.6v3.6c-0.8-0.3-1.6-0.5-2.5-0.7v-3.6h-0.8v3.5
	c-0.7-0.1-1.4-0.2-2.1-0.3V79.5c0.9-0.3,1.4-0.7,1.4-1.2c-0.1-0.3-0.3-0.6-0.6-0.8c0.3-0.1,0.4-0.4,0.5-0.7c0-0.5-0.8-1-2-1.3v-4.4
	c0.5,0.2,0.9-0.1,1.1-0.5c0.2-0.5-0.1-0.9-0.5-1.1c-0.2-0.1-0.4-0.1-0.6,0V49.8h1.1v-1.5h-1.1v-2c0.4,0,0.8-0.3,0.9-0.6
	c-0.1-0.3-0.3-0.5-0.6-0.5c0.2-0.1,0.3-0.3,0.3-0.5c0-0.6-1.1-1.1-2.7-1.3v-4.5c0,0,0.1,0,0.1,0c0,0,0.1,0,0.1,0v3.5h0.3v-6.9h-0.3
	v3.2c0,0-0.1,0-0.1,0c0,0-0.1,0-0.1,0V28.1c0.9-0.1,1.6-0.5,1.6-0.8s-0.6-0.7-1.6-0.8v-0.1c0.9-0.1,1.6-0.5,1.6-0.8
	c-0.2-0.5-0.7-0.8-1.2-0.8c0.4-0.1,0.7-0.3,0.8-0.7c-0.2-0.5-0.6-0.8-1.2-0.8v-0.7h-0.3V0h-1.6v22.6h-0.3v0.7c-0.5,0-1,0.3-1.2,0.8
	c0.1,0.4,0.4,0.7,0.8,0.7c-0.5,0-1,0.3-1.2,0.8c0,0.4,0.6,0.7,1.6,0.8v0.1c-0.9,0.1-1.6,0.5-1.6,0.8s0.6,0.7,1.6,0.8v10.4
	c0,0-0.1,0-0.1,0c0,0-0.1,0-0.1,0v-3.2h-0.3v6.9h0.3v-3.5c0,0,0.1,0,0.1,0c0,0,0.1,0,0.1,0v4.5c-1.5,0.2-2.7,0.7-2.7,1.3
	c0,0.2,0.1,0.4,0.3,0.5c-0.3,0.1-0.5,0.2-0.6,0.5c0.2,0.4,0.5,0.6,0.9,0.6v2h-1.1v1.5h1.1v19.8c-0.5-0.2-0.9,0.1-1.1,0.5
	s0.1,0.9,0.5,1.1c0.2,0.1,0.4,0.1,0.6,0v4.4c-1.2,0.3-2.1,0.8-2.1,1.3c0,0.3,0.2,0.5,0.5,0.7c-0.3,0.1-0.5,0.4-0.6,0.8
	c0,0.4,0.5,0.9,1.4,1.2v13.9c-0.7,0.1-1.4,0.2-2.1,0.3v-3.5h-0.8v3.6c-0.9,0.2-1.7,0.4-2.5,0.7V91h-0.6v3.8
	c-0.3,0.1-0.5,0.3-0.8,0.4v-3.5h-0.4v3.7c-0.2,0.1-0.3,0.3-0.5,0.4v-2.7h-0.3v3.2c-0.1,0.2-0.1,0.3-0.1,0.5c0,1.5,3,2.9,7.3,3.4v6.4
	c-4.3,0.4-7.3,1.3-7.3,2.4c0,0.3,0.2,0.6,0.5,0.8c-3.6,0.9-5.8,2.2-5.8,3.6v12.6c-0.1,0.2-0.1,0.3-0.1,0.5c0,1.6,2.6,2.5,6.7,3
	l5,4.2l0.4,0.5l0.2,0.6v1c-7.2,0.5-12.4,2.2-12.4,4.3c0,1.2,1.9,2.3,4.9,3.1v3.6c-2.9,0.8-4.7,1.9-4.7,3.1c0,1.2,1.7,2.2,4.6,3v3.4
	c-2.9,0.8-4.7,1.9-4.7,3.1c0,1.5,2.8,2.3,7,2.8l4.5,3.2l0.4,0.6l0.2,0.9l-5,175.4h-11.2v-1.5h-0.5v-0.3c0.1,0,0.2-0.1,0.2-0.2
	c0-0.1-0.1-0.2-0.2-0.2c0,0,0,0,0,0h-0.2v-30.6h0.6v-0.5h0.1v-0.4h0.3v-0.2h-1.1V291h0.2v-0.8h0.2v-1.7l0.1,0.1l0.5-0.8l-0.6-0.1
	v-0.1h-0.2V285l2.1-2l1.2-2.4h-2.8l0.7-1.4h-1.2v-1.5H688v-14.9l1.5-1.9H688v-2.8h-31.2V257h-1.6v-1.8h-0.7v-3.5h0.2v-0.6h-2.9
	l-0.1-0.3l-0.6-0.3v-1.4l0.5-0.6l0.7-1.1l0.4-0.7l-0.3-0.6l-0.2-1.3l-0.4-1l-0.8-0.6l-1.5-0.4h-0.9l-0.6,0.5l0.5,0l-0.9,0.6
	l-0.5,0.7l-0.4,1.1l0,0.1l-1.4,0.3l0.1-0.7v-1.6l-0.4-1v-0.5l-0.4-0.1l-0.5-0.7l-0.7-0.4l-1.2,0.4l0,0l0.2-2.8l0.3-0.4V237h-0.2
	l0.3-4.3c0.1,0,0.2-0.2,0.2-0.3c0-0.1-0.1-0.1-0.1-0.2c0,0,0,0,0,0l0-0.4h-0.2l0,0.4c0,0,0,0,0,0h0c-0.1,0-0.2,0.1-0.2,0.2
	c0,0,0,0.1,0,0.1c0,0.1,0.1,0.2,0.1,0.2c0,0,0.1,0,0.1,0l-0.3,4.3h-0.1l-0.3-0.2l-0.3,0.5v0.7l-1,0.9l-0.3,0.1v-2.5L640,236
	l-0.7-0.5l-0.3-0.6l0.3-0.8v-1l-0.5-0.7l-0.9-0.3l-0.8,0.4l-0.2,0.8v0.9l0.5,0.8l-0.5,0.7l-1.1,0.3l-0.6,0.7l-0.4,1.5v1.4l0.9,0.7
	l-0.5,0.9l-0.3,0.6l0,0l-0.7-0.2l-1.2-0.4l-0.7,0.4l-0.5,0.7l-0.4,0.1v0.5l-0.4,1v1.6l0.1,0.7l-1.4-0.3l0-0.1l-0.4-1.1l-0.5-0.7
	l-0.9-0.6l0.5,0l-0.6-0.5h-0.9l-1.5,0.4l-0.8,0.6l-0.4,1l-0.2,1.3l-0.3,0.6l0.4,0.7l0.7,1.1l0.5,0.6v1.4l-0.6,0.3l-0.1,0.3h-2.9v0.6
	h0.2v3.5h-0.6v1.8h-1.6v0.9h-31.2v2.8h-1.5l1.5,1.9v14.9h-0.3v1.5h-1.2l0.7,1.4h-2.8l1.2,2.4l2.1,2v2.6h-0.2v0.1l-0.6,0.1l0.5,0.8
	l0.1-0.1v1.7h0.2v0.8h0.2v17.3h-1.1v0.2h0.3v0.4h0.1v0.5h0.6V340h-0.2c-0.1,0-0.2,0.1-0.2,0.2c0,0.1,0.1,0.2,0.2,0.2v0.3h-0.5v1.5
	h-16.2v-88.8h-1.3l-1.6-10.6h0.5v-0.9h-0.6l-0.6-3.6h0.4v-0.7h-0.5l-0.5-3.6h0.6v-0.8h-0.7l-0.6-4h0.4v-0.7h-0.5l-0.2-1.1h0.9v-0.9
	h-1l-0.3-1.9h0.2v-0.5h-0.3l-0.2-1.3l-0.2,1.3h-0.3v0.5h0.3l-0.3,1.9h-1.1v0.9h1l-0.2,1.1h-0.4v0.7h0.3l-0.5,4h-0.6v0.8h0.5
	l-0.5,3.6h-0.5v0.7h0.4l-0.5,3.6H563v0.9h0.2l-1.4,10.6h-3.3v-29.2h0.4v-1.9h-0.4v-4.6h1.8v-0.4h2.8v-1.4h-4.7v-5.5h0.8l-0.8-0.2
	l-0.4-13.2h0.6v-0.7h-0.3l-0.2-2.1h0.3V194H558l-0.1-1.1h0.2v-0.6h-0.3l-0.1-1.1h0.4v-0.5h-0.5l-0.1-0.9h0.2v-0.5h-0.3l-0.2-2h0.9
	v-0.5h-0.9l-0.2-1.6l-0.2,1.6h-0.9v0.5h0.8l-0.3,2h-0.3v0.5h0.3l-0.1,0.9h-0.4v0.5h0.3l-0.1,1.1h-0.2v0.6h0.1l-0.1,1.1h-0.4v0.4h0.3
	l-0.3,2.1h0v0.7h0.4l0,1.9l-3.5-4.1v-3.5h-0.6V188H551v-2.2h0.7v-0.3H551V184h-0.5v-3.2l3.6-1.1v-0.9l-3.6-0.6v-5l0.8,0v-0.6
	l-0.8-0.5v-7.4l-0.5-3.8l0.3-0.3H550l-0.2-1.2l-0.1,1.2H549l0.6,0.3l-0.4,3.6l0,0l0,0.2h0l0,1.9l-0.1,0.2l-2.3-1.1l-0.1-1h0.6
	l-0.7-0.4v-0.7l0.4-0.4h-0.7v-1.1l0.3-0.3l-0.4-0.1l-0.1-2.1l0.5-0.4h-0.6v-1.4l-0.2,1.4h-0.7l0.7,0.2l-1.2,3.7l-0.8-4.4l1-0.7
	l-1.2-0.5l-0.3-3.8l0.8-0.6l-1.1-0.6l-0.5-4.1l0.8-0.7l-1.2-0.4l-0.4-4l1-0.5l-1.2-0.5l-0.5-4.2l0.8-0.5l-1.2-0.5l-0.4-4.1l0.6-0.5
	l-1-0.6l-0.5-3.9l1-0.6l-1.3-0.6l0-4l0.5-0.6l-1.2-0.8V118l0.3-0.7l-0.9-0.9l-0.6-5.8l1.2-0.9l-1.5-1.2l0.1-1l1.2-0.3l-0.5-1l-0.5-3
	l1.7,2.8l0.4-4.6l1-1l-2.1,0.2h-0.3c0.7-0.5,0.9-1.5,0.4-2.2c-0.5-0.7-1.5-0.9-2.2-0.4s-0.9,1.5-0.4,2.2c0.1,0.2,0.2,0.3,0.4,0.4
	h-1.2l-2.1-0.2l1,1l0.4,4.6l1.7-2.8l-0.5,3l-0.5,1l1.2,0.3l0.1,1l-1.5,1.2l1.2,0.9l-0.6,5.8l-0.9,0.9l0.3,0.7v3.7l-1.2,0.8l0.5,0.6
	l0,4l-1.3,0.6l1,0.6l-0.5,3.9l-1,0.6l0.6,0.5l-0.4,4.1l-1.2,0.5l0.8,0.5l-0.5,4.2l-1.2,0.5l1,0.5l-0.4,4L530,148l0.8,0.7l-0.5,4.1
	l-1.1,0.6l0.8,0.6l-0.3,3.8l-1.2,0.5l1,0.7l-0.8,4.4l-1.2-3.7l0.7-0.2h-0.7l-0.2-1.4v1.4h-0.6l0.5,0.4l-0.1,2.1l-0.4,0.1l0.3,0.3
	v1.1h-0.7l0.4,0.4v0.7l-0.7,0.4h0.6l-0.1,1l-2.3,1.1l-0.1-0.2l0-1.9h0l0-0.2l0,0l-0.4-3.6l0.6-0.3h-0.7l-0.1-1.2l-0.2,1.2h-0.3
	l0.3,0.3l-0.5,3.8v7.4l-0.8,0.5v0.6l0.8,0v5l-3.6,0.6v0.9l3.6,1.1v3.2h-0.5v1.5h-0.7v0.3h0.7v2.2h-0.7v3.5h-0.6v3.5l-3.5,4.1l0-1.9
	h0.4v-0.7h0l-0.3-2.1h0.3V194h-0.4l-0.1-1.1h0.1v-0.6h-0.2l-0.1-1.1h0.3v-0.5h-0.4l-0.1-0.9h0.2v-0.5h-0.3l-0.3-2h0.8v-0.5h-0.9
	l-0.2-1.6l-0.2,1.6h-0.9v0.5h0.9l-0.2,2h-0.3v0.5h0.2l-0.1,0.9h-0.5v0.5h0.4l-0.1,1.1h-0.3v0.6h0.2l-0.1,1.1h-0.3v0.4h0.3l-0.2,2.1
	H515v0.7h0.6l-0.4,13.2l-0.8,0.2h0.8v5.5h-4.7v1.4h2.8v0.4h1.8v4.6h-0.4v1.9h0.4v29.2h-3.3l-1.4-10.6h0.2V242h-0.3l-0.5-3.6h0.4
	v-0.7h-0.5l-0.5-3.6h0.5v-0.8H509l-0.5-4h0.3v-0.7h-0.4l-0.2-1.1h1v-0.9h-1.1l-0.3-1.9h0.3v-0.5h-0.3l-0.2-1.3l-0.2,1.3h-0.3v0.5
	h0.2l-0.3,1.9h-1v0.9h0.9l-0.2,1.1h-0.5v0.7h0.4l-0.6,4h-0.7v0.8h0.6l-0.5,3.6h-0.5v0.7h0.4l-0.6,3.6h-0.6v0.9h0.5l-1.6,10.6h-1.3
	v50.9l-33.1-43.5l-0.1,0l-0.2-8.1c0.6-0.2,1-0.9,0.8-1.5c-0.1-0.4-0.4-0.7-0.8-0.8l-0.2-7.9l-0.2,7.9c-0.6,0.2-1,0.9-0.8,1.5
	c0.1,0.4,0.4,0.6,0.7,0.8l-0.2,8.1L349,259l-1.6-1.9l-1.4-1.1v-4.4h0.6l-1-1.8v-15.3h0.4l-1-1.8v-20.4l0.5,0l-2.4-3.1v-1.6l0.8-0.5
	l-0.9-1.1h0.1v-9.8h0.8v-1h-0.5c0.7-1.8,1.1-3.7,1.1-5.6c0-7.5-6.1-13.5-14.3-14c-0.3-1.2-0.5-2.5-0.7-3.7c0.7-0.1,1.1-0.8,1-1.4
	c-0.1-0.5-0.5-0.9-1.1-1c0-0.1-0.1-0.3-0.2-0.3c-0.1,0-0.2,0.2-0.2,0.3c-0.7,0.1-1.2,0.6-1.1,1.3c0,0.6,0.5,1.1,1.1,1.1
	c-0.1,1.2-0.3,2.5-0.6,3.7c-8.3,0.3-13.9,6.5-13.9,14.1c0,2,0.5,3.9,1.3,5.6h-0.5v1h0.6v9.7l-1,1.2l0.3,0.5v2.5l0.1,0l-1.6,2.5h0.6
	v20.3l-1.2,1.6h0.5v15.3l-0.9,1.2l-0.6-0.8l-1.4-1.1v-4.4l0.6,0l-1-1.8v-15.3h0.4l-1-1.8v-20.4l0.5,0l-2.4-3.1v-1.6l0.8-0.5l-1-1.1
	h0.1v-9.8h0.8v-1h-0.5c0.7-1.8,1.1-3.7,1.1-5.6c0-7.5-6.1-13.5-14.3-14c-0.3-1.2-0.5-2.5-0.7-3.7c0.7-0.1,1.1-0.8,1-1.4
	c-0.1-0.5-0.5-1-1.1-1c0-0.1-0.1-0.3-0.2-0.3c-0.1,0-0.2,0.2-0.2,0.3c-0.7,0.1-1.2,0.6-1.1,1.3c0,0.6,0.5,1,1.1,1.1
	c-0.1,1.2-0.3,2.5-0.6,3.7c-8.3,0.3-13.9,6.5-13.9,14.1c0,2,0.5,3.9,1.3,5.6h-0.5v1h0.6v9.7l-1,1.2l0.3,0.5v2.6h0.1l-1.6,2.5h0.6
	V226l-1.2,1.6h0.5V243l-1,1.5h0.6v5.5l-3.3,3.1v3.5H274v0.8h0.7v16.8l-0.7,0.6l-0.5,0.4l0.5,0.1v33.3l-1,1.3l1,2.1v13.4h-1v17h-7.3
	V270h0.8v-0.8h-0.8V267l2.1-1.7v-1.7l0.7-0.5v-0.7h-2.6l-0.2,1.6v-4.3l0.4-0.5v-1.1h-7.2l-1.6,1.5v0.7h-28.7v-0.9l0.6-0.7v-0.6H222
	l-1.6,2.9v0.5l0.5,0.4l0,0.3l-0.3,0.2l-4.5,9.3h-0.5l-1.2,2.7v0.7l-1.6,3.2l0.6,0.6l0.1,1.2l1.3,0.3l0.1,1.6l-0.4,0.7l0.5,0.6
	l0.1,2.9l1.8,0.3h-4.1v-0.5c0-0.2-0.1-0.4-0.3-0.4s-0.4,0.1-0.4,0.3c0,0,0,0,0,0v0.5h-6V286c0-0.3-0.2-0.6-0.6-0.6s-0.6,0.2-0.6,0.6
	v0.3h-5.8v-0.5c0-0.2-0.2-0.4-0.4-0.4c-0.2,0-0.4,0.2-0.4,0.4v0.5h-4.6l-1.5-0.3v-0.2c0-0.2-0.2-0.4-0.4-0.4c-0.2,0-0.4,0.2-0.4,0.4
	v0l-2.7-0.6c0-0.5-0.3-0.9-0.8-0.9c0,0,0,0-0.1,0c-0.1,0-0.1,0-0.2,0c0-0.5-0.3-0.9-0.8-0.9c-0.1-0.3-0.4-0.5-0.7-0.6
	c0-0.5-0.2-1-0.5-1.4c-0.2-0.2-0.4-0.4-0.7-0.4h0c0,0,0,0-0.1,0c0,0-0.1,0-0.1,0h0c-0.3,0-0.6,0.2-0.7,0.4c-0.3,0.4-0.5,0.9-0.5,1.4
	c-0.3,0-0.6,0.3-0.7,0.6c-0.5,0-0.8,0.4-0.8,0.9c-0.1,0-0.1,0-0.2,0c-0.5,0-0.9,0.4-0.9,0.8c0,0,0,0,0,0.1l-2.7,0.6v0
	c0-0.2-0.2-0.4-0.4-0.4c-0.2,0-0.4,0.2-0.4,0.4v0.2l-1.5,0.3h-4.6v-0.5c0-0.2-0.2-0.4-0.4-0.4c-0.2,0-0.4,0.2-0.4,0.4v0.5H165V286
	c0-0.3-0.2-0.5-0.5-0.6c-0.3,0-0.5,0.2-0.5,0.6v0.3h-6v-0.5c0-0.2-0.2-0.4-0.4-0.4c-0.2,0-0.4,0.2-0.4,0.4v0.5H153l1.8-0.3l0.1-2.9
	l0.5-0.6l-0.4-0.7l0.1-1.6l1.3-0.3l0.1-1.2l0.6-0.6l-1.6-3.2v-0.7l-1.2-2.7h-0.5l-4.5-9.3l-0.3-0.2l0-0.3l0.5-0.4v-0.5l-1.6-2.9
	h-7.3v0.6l0.6,0.7v0.9h-28.7v-0.7l-1.6-1.5h-7.2v1.1l0.4,0.5v4.3l-0.2-1.6h-2.6v0.7l0.7,0.5v1.7l2.1,1.7v2.1h-0.8v0.8h0.8v72.3
	l2.7,0L0,363H1478z M955.6,204.7h21.8v5.7h-21.8V204.7z M955.6,212.4h21.8v62.6h-21.8V212.4z M955.6,276.9h21.8v5.1h-21.8V276.9z
	 M955.6,284.1h21.8v5.3h-21.8V284.1z M955.6,291.7h21.8v50.6h-21.8V291.7z M711.1,23.5c0.4,0,0.8,0.2,0.9,0.6
	c-0.2,0.4-0.5,0.6-0.9,0.6V23.5L711.1,23.5z M711.1,24.9c0.5,0,1,0.2,1.3,0.6c-0.3,0.4-0.8,0.6-1.3,0.6V24.9L711.1,24.9z
	 M711.1,27.8v-1.1c0.3-0.3,0.8-0.3,1.1,0.1s0.3,0.8-0.1,1.1c-0.3,0.3-0.8,0.3-1.1,0V27.8z M713.5,75.9c1,0.3,1.4,0.7,1.4,0.9
	c-0.1,0.3-0.2,0.5-0.5,0.6c-0.4-0.2-0.9-0.4-1.3-0.5v-1.1C713.2,75.9,713.4,75.9,713.5,75.9z M710.8,44.3h0.3v-0.9
	c1.5,0.2,2.4,0.7,2.4,1.1c0,0.2-0.2,0.4-0.3,0.4c-0.8-0.2-1.6-0.4-2.4-0.4V44.3L710.8,44.3z M707.9,24.1c0.2-0.4,0.5-0.6,0.9-0.6
	v1.2C708.5,24.6,708.1,24.4,707.9,24.1L707.9,24.1z M707.5,25.6c0.3-0.4,0.8-0.6,1.3-0.6v1.2C708.3,26.2,707.8,26,707.5,25.6
	L707.5,25.6z M707.5,27.3c0.3-0.4,0.8-0.6,1.3-0.6v1.2C708.3,27.9,707.8,27.7,707.5,27.3L707.5,27.3z M706.7,45
	c-0.2-0.1-0.3-0.2-0.3-0.4c0-0.4,0.9-0.9,2.4-1.1v0.9h0.3v0.2C708.3,44.6,707.5,44.7,706.7,45L706.7,45z M705.5,77.4
	c-0.2-0.1-0.4-0.3-0.5-0.6c0-0.2,0.4-0.6,1.4-0.9c0.1,0,0.3-0.1,0.4-0.1v1.1C706.4,77.1,706,77.2,705.5,77.4L705.5,77.4z
	 M662.1,323.1l0.6-0.4v-0.8h-0.5v-0.7c0.1-4,3.5-7.1,7.5-7c3.8,0.1,6.9,3.2,7,7v0.7h-0.2v0.8h0.4v17.4h-0.1c-0.1,0-0.2,0.1-0.2,0.2
	c0,0,0,0,0,0c0,0.1,0.1,0.2,0.2,0.2v0.3h-0.4v1.5h-13.4v-1.5h-0.4v-0.3c0.1,0,0.2-0.1,0.2-0.2c0-0.1-0.1-0.2-0.2-0.2c0,0,0,0,0,0
	h-0.4V323.1z M649.4,250l0.5,0.8v0.3h-0.5V250z M645.1,249.1v-1l0.3-1.2l0.1-0.7l1.3-0.2l-0.1,0.5l-0.7,0.8v0.7l0.4,3.2h-1v-0.2
	l-0.7-0.5L645.1,249.1z M641.5,239.9l0.9-1l-0.2,2.6l-0.5,0.1l0,0l0-0.1c-0.3,0.3-0.6,0.6-0.9,0.8c0,0,0.1-0.1,0.1-0.1
	c-0.1,0.1-0.2,0.2-0.3,0.3l0.1-0.5l-0.2-1.6L641.5,239.9z M631.1,246.2l0.1,0.7l0.3,1.2v1l0.3,1.3l-0.7,0.5v0.2h-1l0.4-3.2v-0.7
	l-0.7-0.8l-0.1-0.5L631.1,246.2z M626.7,250.8l0.5-0.8v1.1h-0.5V250.8z M625.5,308.5h0.2v-0.5c0-6.6,5.4-12,12-12c0,0,0,0,0,0
	c0.2,0,0.4,0,0.6,0v-1.7l0,0v1.7c0.2,0,0.4,0,0.6,0c6.6,0,12,5.4,12,12c0,0,0,0,0,0v0.5h0.2v0.1h-1l-0.9,2.8l0.3,0.4v0.6h0.3v0.2
	h0.3v1.1h-0.3v0.5h0.3v26h-0.3c-0.1,0-0.2,0.1-0.2,0.2c0,0.1,0.1,0.2,0.2,0.2v0.3h-0.4v1.5h-22.3v-1.5h-0.4v-0.3
	c0.1,0,0.2-0.1,0.2-0.2c0-0.1-0.1-0.2-0.2-0.2h-0.3v-26h0.3v-0.5h-0.3v-1.1h0.3v-0.2h0.3v-0.6l0.3-0.4l-0.9-2.8h-1L625.5,308.5
	L625.5,308.5z M599.8,322.7h0.4v-0.8h-0.2v-0.7c0.2-4,3.5-7.1,7.5-7c3.8,0.1,6.8,3.2,7,7v0.7h-0.5v0.8l0.6,0.4v17h-0.4
	c-0.1,0-0.2,0.1-0.2,0.2c0,0.1,0.1,0.2,0.2,0.2v0.3h-0.4v1.5h-13.4v-1.5h-0.4v-0.3c0.1,0,0.2-0.1,0.2-0.2c0-0.1-0.1-0.2-0.2-0.2
	h-0.1L599.8,322.7L599.8,322.7z M553.5,201.3h0.6v-0.4h-0.6v-1.1l0.6,0.6l0.7,1.1l0.5,1.8l0.1,0.4l-0.7-0.8l-1.2-0.7L553.5,201.3
	L553.5,201.3z M552.1,199l0.7,0.1l0.1,0.1v1.8h-0.6v0.4h0.6v0.7h-0.1l-0.7,0.4L552.1,199L552.1,199z M552.1,203.5l0.6-0.7l0.5,0
	l1.5,0.7l1,1.6l0.1,0.5l-0.1,4.4l-3.6-0.8L552.1,203.5L552.1,203.5z M547.3,167l0.9,0.6l0.9,0.9v3.1l-1.4-0.4l-0.9-0.4l0-3.8H547.3z
	 M524.4,168.5l0.9-0.9l0.9-0.6h0.5l0,3.8l-0.9,0.4l-1.4,0.4V168.5z M520.6,201.3h0.6v-0.4h-0.6v-1.8l0.1-0.1l0.7-0.1v3.5l-0.7-0.4
	h-0.1L520.6,201.3L520.6,201.3z M518.2,203.2l0.5-1.8l0.7-1.1l0.6-0.6v1.1h-0.6v0.4h0.6v0.9l-1.2,0.7l-0.7,0.8L518.2,203.2z
	 M517.9,205l1-1.6l1.5-0.7l0.5,0l0.6,0.7v5.6l-3.6,0.8l-0.1-4.4L517.9,205z M313.3,251.2v0.3l-0.2-0.3H313.3z M222,308.4v30.3H221
	l-0.5-29.2L222,308.4z M211.5,307.8l0.3-1h2.5l0.4,1.8l1.1,1.6l-1.1,28.6h-4.8l-0.5-29.2L211.5,307.8z M199.1,307.8l0.3-1h3.6
	l0.4,1.8l1.1,1.6l-1.1,28.6h-5.9l-0.5-29.2L199.1,307.8z M178.9,308.6l0.4-1.8h11.3l0.4,1.8l1.1,1.6l-1.1,28.6h-12.1l-1.1-28.6
	L178.9,308.6z M166.6,308.6l0.4-1.8h3.6l0.3,1l2.2,1.7l-0.5,29.2h-5.9l-1.1-28.6L166.6,308.6z M155.4,308.6l0.4-1.8h2.5l0.3,1
	l2.2,1.7l-0.5,29.2h-4.8l-1.1-28.6L155.4,308.6z M148,308.4l1.5,1.2l-0.5,29.2H148V308.4L148,308.4z"/>
</svg>
