<?xml version="1.0" encoding="utf-8"?>
<!-- Generator: Adobe Illustrator 21.1.0, SVG Export Plug-In . SVG Version: 6.00 Build 0)  -->
<svg version="1.1" id="Layer_1" xmlns="http://www.w3.org/2000/svg" xmlns:xlink="http://www.w3.org/1999/xlink" x="0px" y="0px"
	 viewBox="0 0 672.2 118.8" style="enable-background:new 0 0 672.2 118.8;" xml:space="preserve">
<style type="text/css">
	.st0{fill:#FFFFFF;}
</style>
<g>
	<g>
		<path class="st0" d="M83.8,21.8c10.5,9.6,15.8,22.9,15.8,40.1s-5.1,30.8-15.4,40.8s-26,15.1-47.1,15.1H0V7.7h38.4
			C58.1,7.7,73.3,12.1,83.8,21.8z M65.7,87.1c6.1-5.7,9.1-14,9.1-24.9s-3-19.4-9.1-25.2c-6.1-5.9-15.4-8.9-27.9-8.9H23.6v67.6h16.1
			C51,95.7,59.6,92.8,65.7,87.1z"/>
		<path class="st0" d="M187.2,117.7h-22v-10.5c-6.3,7.7-13.6,11.5-22.6,11.5s-16.6-2.6-22.7-7.8c-6.1-5.2-9.2-12.2-9.2-20.9
			c0-8.7,3.2-15.1,9.5-19.4s15-6.4,26-6.4h17.4v-0.7c0-9.1-4.7-13.6-14.2-13.6c-4.1,0-8.4,0.8-13,2.4s-8.4,3.7-11.6,6.1l-10.6-15.3
			c11.2-8.1,24-12.2,38.3-12.2c10.3,0,18.6,2.6,25.1,7.8s9.6,13.3,9.6,24.5V117.7L187.2,117.7z M163.6,85.1v-3.5h-14.7
			c-9.5,0-14.2,2.6-14.2,8.5c0,3.1,1.1,5.2,3.4,6.9c2.3,1.6,5.5,2.4,9.7,2.4s7.9-1.3,11.1-3.9C162,92.9,163.6,89.4,163.6,85.1z"/>
		<path class="st0" d="M249.7,53.3c-7.1,0-12.7,2.5-16.1,7.5c-3.5,5-5.5,11.6-5.5,19.8v37.1h-23.6V32.8h23.6v10.8
			c3.1-3.5,7.4-6.4,12-8.9c4.6-2.4,10-3.7,14.7-3.8v22.3L249.7,53.3L249.7,53.3z"/>
		<path class="st0" d="M292.5,50.1v37.5c0,3.3,1,5.8,2.7,7.7c1.7,1.8,3.8,2.8,6.1,2.8c4.4,0,8.2-2,11.3-6l8.9,16.6
			c-7.4,6.8-15.2,10.1-23.3,10.1c-8.2,0-15.1-2.7-20.7-8.1c-5.6-5.4-8.4-12.7-8.4-22v-81h23.6v23.6h25.1l-13,18.9L292.5,50.1
			L292.5,50.1z"/>
		<g>
			<path class="st0" d="M419.1,26l-15.3,19c-6.8-8.7-16.9-14.2-26.1-14.2c-16.5,0-28.9,13.7-28.9,31.6c0,18.2,12.5,32.1,28.9,32.1
				c8.8,0,18.8-5,26.1-12.8l15.4,17.1c-11.1,12-27.6,19.9-42.9,19.9c-31.3,0-54.6-24.2-54.6-56.1c0-31.5,23.9-55.2,55.5-55.2
				C392.7,7.6,408.7,14.8,419.1,26z"/>
			<path class="st0" d="M510.1,75.8c0,25.9-17.5,43-43.6,43c-26.3,0-43.8-17.1-43.8-43S440.2,33,466.5,33
				C492.6,32.9,510.1,49.9,510.1,75.8z M448.5,76.1c0,13.1,7.3,21.8,18,21.8c10.5,0,17.8-8.7,17.8-21.8c0-12.9-7.3-21.8-17.8-21.8
				C455.8,54.3,448.5,63.2,448.5,76.1z"/>
			<path class="st0" d="M605.5,63.8v53.9H580V71.3c0-9.8-5.5-15.9-14.1-15.9c-9.3,0-15.3,7-16.3,17v45.3h-25.7V32.8h25.7v13.7
				c5.6-9.8,14.8-14.8,26.7-15C593.9,31.6,605.5,44.2,605.5,63.8z"/>
			<path class="st0" d="M644.6,30.5v0.9h18.1l-12.8,18.8h-5.3v67.6h-25.4v-89c0-18.5,13.4-28.8,30.6-28.8c7.9,0,16.3,2.2,22.4,5.9
				l-9.1,18.8c-2.8-2.2-6.4-3.4-9.3-3.4C648.6,21.1,644.6,24.3,644.6,30.5z"/>
		</g>
	</g>
</g>
</svg>
