<?xml version="1.0" encoding="UTF-8"?>
<svg width="20px" height="17px" viewBox="0 0 20 17" version="1.1" xmlns="http://www.w3.org/2000/svg" xmlns:xlink="http://www.w3.org/1999/xlink">
    <!-- Generator: Sketch 46.2 (44496) - http://www.bohemiancoding.com/sketch -->
    <title>twitter</title>
    <desc>Created with Sketch.</desc>
    <defs></defs>
    <g id="Google-Dart" stroke="none" stroke-width="1" fill="none" fill-rule="evenodd">
        <g id="One-pager---Fase-1" transform="translate(-1300.000000, -6350.000000)" fill-rule="nonzero" fill="#D8F0FA">
            <g id="Footer" transform="translate(229.000000, 5988.000000)">
                <g id="Icons" transform="translate(702.000000, 352.000000)">
                    <g id="twitter" transform="translate(369.000000, 10.000000)">
                        <path d="M19.8390955,2.35969849 C19.6019095,2.01788945 19.1321608,1.93286432 18.7900503,2.17015075 L16.4495477,3.79417085 C16.2369849,3.94160804 16.1149749,4.18773869 16.1261307,4.44613065 C16.1328643,4.60110553 16.1361809,4.74643216 16.1361809,4.89035176 C16.1361809,9.67457286 12.4957789,14.6230151 6.40361809,14.6230151 C5.16170854,14.6230151 3.94160804,14.3866332 2.80130653,13.9306533 L6.41326633,12.920402 C6.81417085,12.8082412 7.04824121,12.3923618 6.9360804,11.9914573 C6.8239196,11.5906533 6.40844221,11.3564824 6.00713568,11.4686432 L0.550753769,12.9948744 C0.264723618,13.0748744 0.052361809,13.3153769 0.00834170854,13.6091457 C-0.0355778894,13.9028141 0.0969849246,14.1950754 0.347035176,14.3553769 C2.15849246,15.5166834 4.25286432,16.1306533 6.40361809,16.1306533 C10.6304523,16.1306533 13.2777889,14.1336683 14.7544724,12.4584925 C16.5906533,10.3752764 17.6437186,7.61688442 17.6437186,4.89045226 C17.6437186,4.86060302 17.6436181,4.83075377 17.6434171,4.80080402 L19.6495477,3.40884422 C19.9914573,3.17145729 20.0763819,2.70180905 19.8390955,2.35969849 Z" id="Shape"></path>
                        <path d="M1.6638191,2.12462312 L9.26030151,5.97537688 C9.3680402,6.03005025 9.48482412,6.05688442 9.60100503,6.05688442 C9.76643216,6.05688442 9.93085427,6.00251256 10.0662312,5.89628141 C10.2966834,5.71557789 10.401608,5.41778894 10.3352764,5.13246231 C10.2849246,4.9159799 10.2594975,4.69065327 10.2594975,4.46291457 C10.2594975,2.84653266 11.5747739,1.53145729 13.1914573,1.53145729 C13.999598,1.53145729 14.779799,1.86884422 15.3317588,2.45718593 C15.5379899,2.67708543 15.8554774,2.75276382 16.1388945,2.64984925 L18.4834171,1.79798995 C18.8746734,1.65577889 19.0766834,1.22341709 18.9344724,0.832160804 C18.7923618,0.44080402 18.359598,0.239095477 17.9686432,0.381105528 L16.060804,1.07427136 C15.2639196,0.401708543 14.2434171,0.0238190955 13.1914573,0.0238190955 C10.8869347,0.0238190955 8.98693467,1.78874372 8.7721608,4.03768844 L2.34542714,0.78 C1.97407035,0.591658291 1.52050251,0.740201005 1.33226131,1.11145729 C1.1440201,1.48281407 1.29246231,1.93638191 1.6638191,2.12462312 Z" id="Shape"></path>
                        <path d="M1.27527638,6.63849246 L2.94442211,7.09929648 C3.01155779,7.11788945 3.07899497,7.12663317 3.14542714,7.12663317 C3.4759799,7.12663317 3.77929648,6.90743719 3.87155779,6.57326633 C3.98241206,6.1720603 3.74683417,5.75688442 3.34562814,5.64603015 L1.67648241,5.18522613 C1.27547739,5.07447236 0.860100503,5.30984925 0.749246231,5.71115578 C0.638492462,6.11256281 0.873969849,6.52763819 1.27527638,6.63849246 Z" id="Shape"></path>
                        <path d="M2.73869347,8.88201005 C2.32271357,8.89778894 1.99829146,9.24773869 2.01407035,9.66371859 C2.02944724,10.0700503 2.36361809,10.3889447 2.76683417,10.3889447 C2.77648241,10.3889447 2.78613065,10.3887437 2.79577889,10.3884422 L4.46030151,10.3253266 C4.87628141,10.3095477 5.20070352,9.95959799 5.18502513,9.54351759 C5.16924623,9.12753769 4.81839196,8.80351759 4.40331658,8.81889447 L2.73869347,8.88201005 Z" id="Shape"></path>
                    </g>
                </g>
            </g>
        </g>
    </g>
</svg>