<svg width="162" height="53" viewBox="0 0 162 53" xmlns="http://www.w3.org/2000/svg" xmlns:xlink="http://www.w3.org/1999/xlink"><defs><filter x="-.2%" y="-5%" width="100.5%" height="116%" filterUnits="objectBoundingBox" id="a"><feOffset dx="1" dy="1" in="SourceAlpha" result="shadowOffsetOuter1"/><feGaussianBlur stdDeviation="1" in="shadowOffsetOuter1" result="shadowBlurOuter1"/><feColorMatrix values="0 0 0 0 0.137254902 0 0 0 0 0.145098039 0 0 0 0 0.211764706 0 0 0 0.6 0" in="shadowBlurOuter1" result="shadowMatrixOuter1"/><feMerge><feMergeNode in="shadowMatrixOuter1"/><feMergeNode in="SourceGraphic"/></feMerge></filter><path id="b" d="M.039.066h12.783v26.8H.039V.065z"/></defs><g filter="url(#a)" transform="translate(-9 1)" fill="none" fill-rule="evenodd"><path d="M25.165 20.052c1.4-1.294 2.1-3.178 2.1-5.646 0-2.467-.7-4.403-2.1-5.733-1.4-1.33-3.549-2.03-6.447-2.03h-3.272V22h3.71c2.606 0 4.608-.654 6.01-1.948m4.182-14.851C31.783 7.392 33 10.397 33 14.302c0 3.906-1.187 7.002-3.561 9.278C27.066 25.856 23.443 27 18.572 27H10V2h8.864c4.554 0 8.048 1.008 10.484 3.2m19.101 14.742v-.834h-3.471c-2.234 0-3.351.63-3.351 2.044 0 .73.266 1.255.8 1.646.533.39 1.297.568 2.29.568.994 0 1.853-.32 2.612-.937.755-.618 1.12-1.453 1.12-2.487zM54 27.756h-5.181v-2.517C47.339 27.079 45.614 28 43.49 28c-2.121 0-3.896-.624-5.335-1.872C36.716 24.879 36 23.214 36 21.133c0-2.08.747-3.607 2.236-4.642 1.49-1.034 3.527-1.52 6.11-1.52h4.103v-.176c0-2.168-1.096-3.253-3.354-3.253-.97 0-1.975.195-3.057.585-1.079.392-1.983.876-2.728 1.457l-2.492-3.67C39.45 7.97 42.458 7 45.833 7c2.432 0 4.369.618 5.91 1.855C53.28 10.09 54 12.045 54 14.719v13.037zm14.798-15.613c-1.685 0-3.02.577-3.85 1.731-.83 1.155-1.323 2.68-1.323 4.575V27H58V7.433h5.625v2.484c.75-.802 1.773-1.483 2.867-2.041A8.38 8.38 0 0 1 70 7v5.144h-1.202zm9.598-.206v8.769c0 .765.221 1.364.607 1.795.385.432.859.649 1.389.649 1.014 0 1.877-.469 2.576-1.408L85 25.63C83.31 27.21 81.532 28 79.663 28c-1.87 0-3.445-.629-4.734-1.888C73.637 24.853 73 23.138 73 20.964V2h5.397v5.52h5.749l-2.967 4.416h-2.783zm30.569-5.64l-3.606 4.443c-1.61-2.04-3.99-3.314-6.161-3.314-3.886 0-6.827 3.204-6.827 7.392 0 4.26 2.94 7.501 6.827 7.501 2.065 0 4.446-1.165 6.161-2.986L109 23.34c-2.625 2.803-6.512 4.66-10.117 4.66C91.496 28 86 22.356 86 14.89 86 7.536 91.636 2 99.093 2c3.64 0 7.421 1.675 9.872 4.297m5.943 11.758c0 3.049 1.664 5.081 4.109 5.081 2.41 0 4.075-2.032 4.075-5.081 0-3.013-1.664-5.082-4.075-5.082-2.445 0-4.109 2.069-4.109 5.082M129 17.982C129 24.007 124.993 28 119.017 28 113.007 28 109 24.007 109 17.982 109 11.956 113.007 8 119.017 8c5.976 0 9.983 3.956 9.983 9.982m23-3.494V27h-5.942V16.224c0-2.28-1.278-3.69-3.282-3.69-2.176 0-3.558 1.628-3.8 3.943V27H133V7.29h5.976v3.182c1.313-2.278 3.455-3.436 6.218-3.472C149.305 7 152 9.93 152 14.488" fill="#FFF"/><g transform="translate(155)"><mask id="c" fill="#fff"><use xlink:href="#b"/></mask><path d="M6.162 7.015v.206h4.368l-3.089 4.274h-1.28v15.37H.04V6.625C.039 2.406 3.261.066 7.415.066c1.898 0 3.939.497 5.407 1.348l-2.185 4.29c-.68-.497-1.54-.78-2.255-.78-1.254-.036-2.22.673-2.22 2.091" fill="#FFF" mask="url(#c)"/></g><path d="M43.338 45.308c1.468-.358 2.272.04 2.61.827.093.209.096.405-.286.47-1.47.218-4.693 1.462-6.39 2.169-.704.286-.998.336-1.33-.058-.27-.32-.632-.765-.785-1.077-.215-.442-.222-.862.059-1.64 1.35-3.71 6.049-13.016 7.8-15.699.259-.38.524-.397.706-.062.366.641.505 1.798-.664 4.074-1.481 2.919-4.08 7.683-6.175 12.532 1.668-.702 3.34-1.264 4.455-1.536m11.229-8.418c-.164-.88-.752-.61-.885.236-.134.789.205 1.555.686 1.9.22-.918.297-1.64.199-2.135m-.96 2.689c-.629-.348-1.355-1.22-1.404-2.262a12.472 12.472 0 0 0-2.228 3.045c-1.203 2.361-1.6 5.04-.82 5.533.839.511 2.624-.784 4.026-3.632.429-.868.77-1.72.994-2.44a1.88 1.88 0 0 1-.568-.244m2.524.283c-.577 2.51-2.388 5.684-4.562 6.761-1.058.52-2.538.656-3.746-.617-1.33-1.422-.93-3.96.36-6.448 1.088-2.115 2.861-4.061 4.633-4.473.915-.212 1.422-.042 2.026.623.696.763 1.586.811 1.445 2.879-.026.231-.022.43-.048.66.178-.03.354-.115.59-.155.207-.035.21.106.094.268a1.472 1.472 0 0 1-.792.502m1.75 2.751c.494 1.655 1.411 2.727 2.425 2.255 1.413-.661.867-5.274.701-7.643-.867 1.736-1.98 3.574-3.126 5.388m3.154-7.311c.134-1.192.433-1.812 1.071-2.491.669-.713 1.377-.954 1.66-.732.314.246.165.6-.224 1.357-.12.2-.21.395-.33.625-.167 2.786.46 5.017.404 7.095-.041 1.176-.235 2.468-1.334 3.374 2.056-1.1 3.32-3.114 4.064-4.86.149-.354.46-.317.587-.1.128.249.111 1.03-.398 2.047-1.137 2.261-3.216 3.755-5.407 4.22-1.79.364-3.527.21-4.61-1.463-.764-1.218-.706-3.206.329-4.222.365-.361.614-.284.654.188.035.234.039.474.074.707 1.236-1.89 2.592-4.069 3.46-5.745m18.928-.206c.385-3.014 1.138-6.713 2.002-9.072-2.172 2.78-4.762 6.653-6.917 10.394 1.775-.445 3.546-1.06 4.915-1.322m-5.992 3.207c-.848 1.59-1.581 3.105-2.142 4.448-.112.274-.374.319-.524.146-.357-.393-.488-1.22.096-2.907.167-.454.42-1.064.758-1.746-.647-.23-.888-.613-.978-.796-.153-.342-.096-.465.342-.484a16.8 16.8 0 0 0 1.313-.082c2.204-4.232 6.155-10.52 9.2-13.506.459-.446.75-.496 1.048-.15.299.345.387.387.69 1.043.304.629.286 1.256.037 2.063a64.049 64.049 0 0 0-1.982 8.587c.88.133 1.21.643 1.336 1.217.063.244-.052.349-.315.309a6.875 6.875 0 0 0-1.256.044c-.178 1.505-.325 3.089-.357 4.596.005.283-.169.398-.433.33-.587-.155-1.065-.782-1.123-2.388-.01-.565.007-1.305.079-2.167-2.066.495-4.42 1.237-5.789 1.443" fill="#FFF"/><path d="M91.658 28c.959-.023 1.882 1.205 1.183 2.796-.587 1.345-1.97 3.676-2.612 5.256-.725 1.765-.527 3.061.515 2.826 1.187-.26 2.575-2.366 3.641-4.528.141-.28.344-.314.493-.113.208.275.162.934-.23 1.821-.755 1.714-2.555 3.465-4.236 3.754-2.464.422-3.074-1.227-2.277-3.825.908-2.928 3.406-6.354 2.88-6.49-.291-.064-1.958 1.014-3.779 3.307-1.678 2.098-2.906 5.024-4.106 7.889-.111.273-.283.416-.549.207-.59-.465-.78-1.365-.34-2.855.548-1.876 2.711-6.18 4.491-9.115.198-.345.43-.357.609-.104.447.63.435 1.594.134 2.664 1.28-1.578 3.224-3.467 4.183-3.49" fill="#FFF"/><path d="M102.39 26.89c-.868.095-2.88 2.226-4.377 4.906-1.47 2.648-1.735 5.14-.616 4.973 1.091-.163 2.488-2.158 3.873-4.846 1.71-3.357 1.932-5.12 1.12-5.033m-8.026 19.528c.373.463 2.534-2.806 4.28-7.337-3.601 2.742-4.767 6.755-4.28 7.337m6.726-8.653c-1.475 3.983-3.385 8.737-5.636 10.02-.556.319-1.117.333-1.632-.3-.602-.728-1.123-1.61-.62-3.339.77-2.636 3.146-4.747 5.897-6.284.27-.659.51-1.368.779-2.054-.798.945-1.767 1.698-2.802 1.88-2.574.449-3.137-2.928-.928-6.65 2.126-3.597 4.37-5.24 5.798-5.489 1.119-.195 1.693.567 1.682 1.541.326-.613.625-1.165.897-1.685.217-.427.496-.504.696-.289.429.426.673 1.579-.003 3.06-.81 1.809-2.516 5.47-3.644 8.364 2.33-1.574 3.842-3.367 4.936-5.032.164-.251.416-.295.476-.028.06.24-.069.874-.531 1.706-1.062 1.881-3.057 3.342-5.365 4.579" fill="#FFF"/><path d="M112.718 28.292c.983-1.329 1.647-2.887 1.2-3.125-.668-.371-3.245 1.71-4.671 4.591-.091.183-.182.365-.242.514 1.556.624 2.822-.777 3.713-1.98m-2.485 6.824c2.61-.297 4.862-2.887 6.178-4.94.153-.247.404-.287.535-.055.13.203.05 1-.501 1.813-1.288 1.908-3.683 3.57-6.102 3.976-3.99.68-5.44-2.59-3.467-6.508 1.974-3.918 5.151-5.87 6.738-5.307.794.296 1.368.626 1.882 1.16.58.582.36 2.322-.932 3.951-1.508 1.915-3.6 2.97-5.83 1.724-.957 2.723-.169 4.363 1.499 4.186" fill="#FFF"/><path d="M122.903 19.599c-.365-.154-2.369 3.185-4.225 6.959-.243.473-.457.942-.644 1.406 3.754-3.639 5.234-8.212 4.869-8.365m-5.428 14.617c1.336-.12 3.246-2.391 4.294-4.649.188-.383.493-.462.61-.104.147.407.047 1.018-.248 1.716-.374.874-2.363 3.455-4.587 3.781-1.918.274-2.969-.843-2.381-3.86.945-4.86 4.027-10.273 6.81-13.61.41-.503.798-.623 1.193-.34.818.563 1.003 1.53.692 2.852-.804 3.459-3.859 7.22-6.304 9.205-1.065 2.828-1.33 5.114-.079 5.009" fill="#FFF"/><path d="M128.718 26.292c.983-1.329 1.647-2.887 1.2-3.125-.668-.371-3.245 1.71-4.671 4.591-.091.183-.182.365-.242.514 1.556.624 2.822-.777 3.713-1.98m-2.485 6.824c2.61-.297 4.862-2.887 6.178-4.94.153-.247.404-.287.535-.055.13.203.05 1-.501 1.813-1.288 1.908-3.683 3.57-6.103 3.976-3.99.68-5.44-2.59-3.466-6.508 1.974-3.918 5.151-5.87 6.738-5.307.794.296 1.368.626 1.883 1.16.578.582.36 2.322-.933 3.951-1.508 1.915-3.6 2.97-5.83 1.724-.957 2.723-.169 4.363 1.499 4.186" fill="#FFF"/><path d="M131.881 29.615c.494 1.654 1.411 2.726 2.425 2.253 1.413-.66.867-5.273.701-7.642-.867 1.736-1.98 3.575-3.126 5.389m3.154-7.312c.134-1.192.433-1.812 1.071-2.49.669-.715 1.377-.955 1.66-.734.314.247.165.602-.224 1.357-.12.2-.21.396-.33.626-.168 2.786.46 5.017.404 7.095-.041 1.176-.235 2.468-1.334 3.374 2.056-1.1 3.32-3.114 4.064-4.86.149-.354.46-.317.587-.1.128.249.111 1.03-.397 2.047-1.138 2.262-3.217 3.756-5.408 4.22-1.79.364-3.527.211-4.61-1.462-.764-1.219-.706-3.207.329-4.222.365-.362.614-.285.653.187.036.234.04.473.075.707 1.236-1.89 2.592-4.069 3.46-5.745" fill="#FFF"/></g></svg>