<?xml version="1.0" encoding="UTF-8"?>
<svg width="1044px" height="1051px" viewBox="0 0 1044 1051" version="1.1" xmlns="http://www.w3.org/2000/svg" xmlns:xlink="http://www.w3.org/1999/xlink">
    <!-- Generator: Sketch 46.2 (44496) - http://www.bohemiancoding.com/sketch -->
    <title>Icon large background</title>
    <desc>Created with Sketch.</desc>
    <defs></defs>
    <g id="Google-Dart" stroke="none" stroke-width="1" fill="none" fill-rule="evenodd" opacity="0.2">
        <g id="One-pager---Fase-1" transform="translate(-32.000000, -1716.000000)" fill="#84D6F6">
            <g id="Speakers" transform="translate(32.000000, 1716.000000)">
                <g id="Background-icon">
                    <path d="M1035.54216,845.724551 L902.344668,888.263784 L910.163897,870.616854 L958.252587,762.122435 L958.544834,761.473014 L958.54267,761.468685 L958.544834,761.464356 L928.281042,675.671527 L772.112944,232.915847 C809.646108,243.914872 848.185901,265.105476 869.890106,286.975807 L1035.85389,453.571747 L1035.54216,845.724551 Z M843.159254,1042.8541 L460.294134,1042.34538 L287.199528,870.244519 C265.603562,848.867748 244.455709,810.289983 233.270228,772.396274 L759.914341,958.067871 L761.442684,958.602561 L888.111161,902.481772 L843.159254,1042.8541 Z M34.9189932,615.691013 C9.04539872,589.618929 0.334275561,553.554423 16.3212648,536.403217 L216.423817,234.130264 L216.70524,707.960733 L217.506213,730.716441 C217.629606,734.660591 218.038752,738.840697 218.582114,743.122545 C218.692519,743.981945 218.792099,744.828357 218.917657,745.700746 C219.528129,749.921982 220.318278,754.277431 221.318412,758.780083 C221.379026,759.052839 221.400674,759.297455 221.463453,759.570211 L154.095124,735.855525 L34.9189932,615.691013 Z M536.914784,15.985458 C553.512244,0.464298799 589.530054,9.16220924 615.576832,34.9810191 L735.711966,154.234177 L759.325517,221.200294 C759.039765,221.137517 758.784319,221.11587 758.498567,221.053092 C753.954668,220.072467 749.570965,219.295326 745.336631,218.695694 C744.459891,218.572304 743.611292,218.474891 742.745375,218.366654 C738.452593,217.8298 734.274544,217.427159 730.351941,217.303769 L706.147401,216.468181 L234.027906,216.533123 L536.914784,15.985458 Z M737.792331,225.95189 C738.601963,226.029821 739.463551,226.166199 740.290501,226.259283 C742.156552,226.475757 744.020438,226.687901 745.957927,226.98447 C747.064135,227.155484 748.222299,227.384946 749.352321,227.581937 C751.07766,227.88067 752.79434,228.17291 754.571634,228.536586 C755.857521,228.798519 757.188868,229.116735 758.500732,229.413304 C759.842903,229.714202 761.185074,230.01943 762.553222,230.354964 L949.777427,761.130986 L893.601073,887.882791 L230.321782,224.68119 L706.004525,224.609754 L730.081342,225.441013 C732.564358,225.521108 735.140461,225.696452 737.792331,225.95189 L737.792331,225.95189 Z M761.096317,949.848367 L230.663819,762.817316 C230.321782,761.46652 230.010052,760.133043 229.700486,758.799565 C229.40391,757.513712 229.083521,756.2192 228.817251,754.952829 C228.444907,753.177745 228.144001,751.450285 227.8366,749.718496 C227.635275,748.594998 227.403642,747.452018 227.230459,746.350167 C226.927388,744.425716 226.710909,742.572702 226.492265,740.717523 C226.392684,739.866782 226.249808,738.977075 226.167546,738.143651 C225.905606,735.485355 225.725928,732.907154 225.647996,730.445849 L224.849187,707.817861 L224.576424,230.487013 L887.221431,893.09764 L875.864932,898.996547 L813.451813,926.651053 L761.096317,949.848367 Z M1044,450.205582 L875.665771,281.232761 C851.99377,257.375203 809.288918,234.416009 768.809471,223.594493 L768.770505,223.484091 L768.764011,223.484091 L742.777847,149.761832 L621.311366,29.1968437 C591.722988,-0.113685792 551.388583,-8.70985363 531.879477,9.61680386 L224.5656,213.024085 L212.912524,224.68119 L9.95244658,531.365876 C-8.8379483,551.430816 -0.235064745,591.837784 29.1346688,621.434059 L148.968897,742.258815 L223.820911,768.993308 L223.8339,769.047427 L223.885855,769.064745 C234.934953,809.947954 257.903397,852.70799 281.464994,876.028695 L456.930047,1050.49129 L846.118525,1051 L849.092949,1051 L898.036732,898.1891 L1043.69043,851.675411 L1044,450.205582 Z" id="Icon-large-background"></path>
                </g>
            </g>
        </g>
    </g>
</svg>