<?xml version="1.0" encoding="UTF-8"?>
<svg width="100px" height="96px" viewBox="0 0 100 96" version="1.1" xmlns="http://www.w3.org/2000/svg" xmlns:xlink="http://www.w3.org/1999/xlink">
    <!-- Generator: Sketch 46.2 (44496) - http://www.bohemiancoding.com/sketch -->
    <title>Logo icon</title>
    <desc>Created with Sketch.</desc>
    <defs>
        <polygon id="path-1" points="6.77892473 0.00892473118 6.77892473 9.19817204 0.153397849 9.19817204 0.153397849 0.00892473118 6.77892473 0.00892473118"></polygon>
    </defs>
    <g id="Google-Dart" stroke="none" stroke-width="1" fill="none" fill-rule="evenodd">
        <g id="One-pager---Fase-1" transform="translate(-180.000000, -2044.000000)">
            <g id="Speakers" transform="translate(32.000000, 1716.000000)">
                <g id="Logo-icon" transform="translate(148.000000, 328.000000)">
                    <path d="M30.1949892,57.0890753 L23.7663871,50.6071398 L23.766172,50.6071398 C22.5328387,49.363914 22.0631613,47.616172 22.7616559,46.8667097 L22.7853118,46.8413333 L32.9433763,31.496172 L32.958,55.9327312 L33.001871,57.1860645 C33.0085376,57.3944516 33.0281075,57.6219785 33.0638065,57.9019785 L33.0681075,57.9368172 C33.0726237,57.9742366 33.0773548,58.0114409 33.0829462,58.0497204 C33.0857419,58.0695054 33.0887527,58.0890753 33.0917634,58.1088602 L30.1949892,57.0890753 Z M35.1328387,30.0077849 L60.042086,30.004129 L61.3481075,30.0492903 C61.4704731,30.0531613 61.6027312,30.0617634 61.7414409,30.0753118 L61.7416559,30.0753118 C61.7627312,30.0774624 61.7844516,30.0802581 61.806172,30.0832688 C61.8276774,30.0860645 61.8491828,30.0888602 61.8704731,30.0912258 C61.9668172,30.1024086 62.0631613,30.1133763 62.1633763,30.1286452 C62.1986452,30.1340215 62.2352043,30.1409032 62.2715484,30.1475699 L62.3711183,30.1652043 C62.4506882,30.1791828 62.5304731,30.1927312 62.6126237,30.2095054 C62.6590753,30.2189677 62.7066022,30.2299355 62.7536989,30.2409032 L62.8124086,30.2542366 L72.885957,58.8131613 L70.1390753,65.0107957 L35.1328387,30.0077849 Z M62.2524086,28.8467097 C62.2154194,28.8413333 62.1790753,28.8368172 62.1427312,28.8325161 L62.1038065,28.8277849 C61.8227312,28.7927312 61.5958495,28.7731613 61.3906882,28.7669247 L60.0713333,28.7213333 L60.0569247,28.7209032 L35.7158495,28.7243441 L51.0638065,18.5619785 L51.0930538,18.5426237 L51.1188602,18.5185376 C51.8504731,17.8342366 53.582086,18.3142366 54.8242366,19.5452043 L61.3046667,25.9783226 L62.3195054,28.8563871 C62.2971398,28.8531613 62.2745591,28.8497204 62.2524086,28.8467097 L62.2524086,28.8467097 Z M63.0345591,68.6667097 L34.4934839,58.6028387 L34.4795054,58.5432688 C34.4687527,58.4978925 34.458,58.4527312 34.4485376,58.4077849 C34.4315484,58.3267097 34.4175699,58.2473548 34.4033763,58.1682151 L34.3844516,58.0645591 C34.378,58.0295054 34.3713333,57.9942366 34.365957,57.959828 C34.3509032,57.8652043 34.3401505,57.7738065 34.3296129,57.6826237 L34.3278925,57.6692903 C34.3255269,57.6477849 34.3223011,57.6258495 34.3195054,57.603914 C34.3164946,57.5813333 34.3130538,57.5589677 34.3111183,57.5363871 C34.2973548,57.3976774 34.2883226,57.2658495 34.2844516,57.1432688 L34.2412258,55.9172473 L34.2270323,30.9185376 L69.2255269,65.916172 L69.1263871,65.9677849 L63.0345591,68.6667097 Z M46.8289677,73.7406882 L37.5156344,64.4804731 C36.5390753,63.5140215 35.5726237,61.8624086 34.9450968,60.124129 L62.8496129,69.9621935 L63.0893978,70.0460645 L69.2909032,67.2983226 L67.2192903,73.7677849 L46.8289677,73.7406882 Z M68.6853118,33.2802581 L77.6093978,42.2385376 L77.5928387,63.1355269 L71.5134839,65.0770323 L74.182086,59.0566022 L74.1962796,59.0245591 L74.270043,58.8772473 L74.2666022,58.8675699 L74.2706882,58.8585376 L74.2093978,58.7052043 L64.3315484,30.7006882 C66.0547742,31.3226237 67.7042366,32.291871 68.6853118,33.2802581 L68.6853118,33.2802581 Z M69.5952043,32.3755269 C68.2883226,31.0583226 66.0311183,29.8189677 63.7952043,29.1828387 L62.4173548,25.2742366 L55.7281075,18.6340215 C53.9691828,16.891871 51.5440215,16.403914 50.298,17.5335914 L33.5743441,28.6030538 L33.5392903,28.6262796 L32.8442366,29.3215484 L21.7762796,46.0464946 C20.6313333,47.3114409 21.109828,49.7525161 22.8554194,51.5112258 L29.4545591,58.1652043 L33.4216559,59.5821935 L33.4238065,59.5890753 L33.4244516,59.5895054 C34.0650968,61.8138065 35.329828,64.1228387 36.6117634,65.3914409 L46.2988602,75.0234839 L67.6866022,75.0514409 L68.1552043,75.0514409 L70.8504731,66.635957 L78.8758495,64.0731613 L78.8928387,41.7086452 L69.5952043,32.3755269 Z" id="Fill-1" fill="#FFFFFF"></path>
                    <path d="M25.3552473,15.9393118 L26.6797634,14.9655484 C27.8163226,14.1296344 27.9776129,12.6449032 27.0227742,11.3466237 C26.0601935,10.0378065 24.5449247,9.76963441 23.3666452,10.635871 L22.1255699,11.5485591 L25.3552473,15.9393118 Z M22.3057849,9.1064086 C24.6001935,7.41931183 27.2879355,7.75286022 28.9027742,9.94834409 C30.5096559,12.1330753 30.013957,14.8233978 27.6675054,16.5485591 L24.6014839,18.8029677 L19.1668602,11.4145806 L22.3057849,9.1064086 Z" id="Fill-3" fill="#FFFFFF"></path>
                    <path d="M35.0099785,9.61150538 L34.7542796,9.03688172 L33.4652473,9.61107527 C32.8504086,9.88483871 32.6387957,10.2370968 32.8523441,10.7160215 C33.060086,11.1829032 33.5243871,11.3347312 34.091914,11.081828 C34.7306237,10.7975269 35.1144946,10.1962366 35.0099785,9.61150538 M36.1194409,6.69344086 L37.9955699,10.9067742 L35.9975054,11.7970968 L35.6669677,11.0547312 C35.4983656,11.7895699 34.952129,12.3770968 34.0889032,12.7613978 C32.7293333,13.3672043 31.5282581,12.8977419 31.0007312,11.7127957 C30.4568602,10.4917204 31.000086,9.38892473 32.5792258,8.67150538 L34.2583656,7.92376344 L34.2157849,7.82806452 C33.9334194,7.19365591 33.3486882,6.99473118 32.5209462,7.36311828 C31.9889032,7.60032258 31.3766452,8.10247312 30.8570753,8.74978495 L29.6699785,7.64311828 C30.4555699,6.73408602 31.2368602,6.07043011 32.3009462,5.59666667 C34.0510538,4.81731183 35.4570753,5.23817204 36.1194409,6.69344086" id="Fill-5" fill="#FFFFFF"></path>
                    <path d="M39.8761935,4.3476129 C40.1293118,3.42739785 40.7764086,2.78288172 41.7368387,2.51643011 L42.2570538,4.4932043 C40.9751183,4.70868817 40.3056559,5.5215914 40.4463011,6.51427957 L41.369957,10.024172 L39.2041505,10.5942796 L37.4067312,3.76460215 L39.5727527,3.19449462 L39.8761935,4.3476129 Z" id="Fill-7" fill="#FFFFFF"></path>
                    <path d="M48.7083226,8.43133333 C48.2440215,8.79219355 47.5855269,9.058 46.9173548,9.14015054 C45.5812258,9.30466667 44.5229462,8.65584946 44.3438065,7.19929032 L43.9627312,4.10423656 L42.9990753,4.22273118 L42.818,2.75326882 L43.781871,2.63455914 L43.5416559,0.684021505 L45.7515484,0.412193548 L45.990043,2.34982796 L47.8016559,2.12703226 L47.9844516,3.6096129 L46.1724086,3.8324086 L46.5104731,6.57627957 C46.5775699,7.12251613 46.8377849,7.32810753 47.2472473,7.26466667 C47.4786452,7.23606452 47.7629462,7.10875269 48.0792903,6.92466667 L48.7083226,8.43133333 Z" id="Fill-9" fill="#FFFFFF"></path>
                    <path d="M61.1637849,2.03451613 L59.6405591,3.45387097 C59.1416344,2.65150538 58.3255054,2.08634409 57.5289462,1.98591398 C56.1031398,1.80634409 54.8796989,2.81430108 54.6910968,4.30935484 C54.4992688,5.83064516 55.4323871,7.12354839 56.8584086,7.30333333 C57.616043,7.39860215 58.5422796,7.0927957 59.2536774,6.52204301 L60.4093763,8.12053763 C59.3194839,9.00010753 57.8100215,9.48333333 56.4867957,9.31666667 C53.7764731,8.97537634 52.0138925,6.70591398 52.3500215,4.04096774 C52.6812043,1.41473118 54.9986237,-0.300752688 57.7347527,0.0439784946 C59.0708817,0.212365591 60.3827097,0.985268817 61.1637849,2.03451613" id="Fill-11" fill="#FFFFFF"></path>
                    <path d="M63.340043,7.10782796 C62.984129,8.14933333 63.3467097,9.04890323 64.2286452,9.35062366 C65.0983226,9.64804301 65.935957,9.15858065 66.292086,8.11707527 C66.6436989,7.08782796 66.2852043,6.17578495 65.4155269,5.87836559 C64.5335914,5.57686022 63.691871,6.07858065 63.340043,7.10782796 M68.4316559,8.82073118 C67.728,10.8792258 65.8166022,11.7493333 63.6606882,11.012129 C61.4927312,10.2710538 60.5135914,8.41255914 61.2172473,6.35449462 C61.9209032,4.296 63.8284301,3.43858065 65.9963871,4.17965591 C68.152086,4.91664516 69.1353118,6.76245161 68.4316559,8.82073118" id="Fill-13" fill="#FFFFFF"></path>
                    <path d="M76.3669677,12.3270753 L74.0929892,16.1584731 L72.1783656,15.0214839 L74.1312688,11.7311613 C74.5525591,11.0212688 74.4015914,10.3371828 73.756,9.95395699 C73.0547097,9.5376129 72.3084731,9.78019355 71.8024516,10.4550323 L69.8962151,13.6664301 L67.9706237,12.5232043 L71.5755699,6.44944086 L73.5013763,7.59288172 L72.9127742,8.58449462 C73.7570753,8.12578495 74.6613763,8.17503226 75.5585806,8.69245161 C76.8830968,9.47890323 77.2097634,10.9072903 76.3669677,12.3270753" id="Fill-15" fill="#FFFFFF"></path>
                    <path d="M81.6930323,13.168172 L81.3627097,13.5582796 L82.5687312,14.5787097 L81.6033548,15.7189247 L80.3975484,14.6984946 L77.0022796,18.7098925 L75.3123871,17.2795699 L78.7076559,13.2683871 L77.9861505,12.6578495 L78.9513118,11.5176344 L79.6728172,12.128172 L80.0962581,11.627957 C81.1037849,10.4378495 82.552172,10.5301075 83.6986237,11.5004301 C84.2224946,11.9436559 84.6672258,12.5602151 84.8693763,13.1432258 L83.2418495,13.8436559 C83.1726022,13.5445161 83.0029247,13.2636559 82.8052903,13.0965591 C82.468086,12.7937634 82.0317419,12.768172 81.6930323,13.168172" id="Fill-17" fill="#FFFFFF"></path>
                    <polygon id="Fill-19" fill="#FFFFFF" points="79.7587957 77.4126022 78.2824516 76.1347527 82.3065376 71.4857204 89.2430968 77.4895914 87.7351398 79.2317419 82.2751398 74.5059355"></polygon>
                    <path d="M78.6446882,80.3870323 C77.9614624,79.5240215 77.0087742,79.3423011 76.2780215,79.9207957 C75.5571613,80.4911183 75.5150108,81.4601505 76.1980215,82.3233763 C76.8730753,83.1762796 77.8337204,83.3681075 78.5545806,82.7977849 C79.2855484,82.2195054 79.3195269,81.2401505 78.6446882,80.3870323 M74.4476989,83.741871 C73.0980215,82.0362796 73.4014624,79.958 75.1883441,78.5440215 C76.9851183,77.121871 79.0775914,77.3040215 80.4272688,79.009828 C81.7771613,80.7152043 81.4655484,82.7833763 79.6687742,84.2055269 C77.8818925,85.6195054 75.7975914,85.4474624 74.4476989,83.741871" id="Fill-21" fill="#FFFFFF"></path>
                    <path d="M69.7413763,89.4533118 L69.727828,87.7989032 C70.6858925,87.8090108 71.4886882,87.6649247 72.0030968,87.3913763 C72.3577204,87.2034194 72.5353548,86.9309462 72.3818065,86.6414839 C71.9271828,85.7849247 68.9015914,87.926 67.7577204,85.7440645 C67.0757849,84.4593333 67.8099785,83.1644946 69.2964301,82.3750323 C70.3252473,81.8285806 71.4796559,81.6010538 72.5299785,81.7851398 L72.5770753,83.3922366 C71.6153548,83.2651398 70.6676129,83.4122366 69.9815914,83.7767527 C69.5929892,83.9829892 69.3809462,84.2737419 69.5344946,84.5632043 C70.019871,85.4776129 72.9577204,83.3087957 74.1076129,85.5023441 C74.7895484,86.7872903 74.0833118,88.0522366 72.6540645,88.8113763 C71.7624516,89.2851398 70.7355699,89.5038495 69.7413763,89.4533118" id="Fill-23" fill="#FFFFFF"></path>
                    <path d="M60.8349032,92.8051183 L61.4004946,89.2074839 L58.845871,89.7651183 L60.8349032,92.8051183 Z M61.6807097,87.3354409 L61.9647957,85.5429677 L64.2794194,85.0378065 L62.4176989,94.8341505 L60.1030753,95.3390968 L54.4144731,87.1909247 L56.8174839,86.6664086 L57.8103871,88.179957 L61.6807097,87.3354409 Z" id="Fill-25" fill="#FFFFFF"></path>
                    <path d="M46.8740645,91.4381505 L46.9175054,86.9830968 L49.144172,87.0048172 L49.1067527,90.8312688 C49.0987957,91.6568602 49.5727742,92.1723441 50.3237419,92.1796559 C51.1392258,92.1876129 51.6626667,91.6030968 51.7615914,90.7654624 L51.7979355,87.0310538 L54.0377204,87.0529892 L53.9686882,94.1155699 L51.7291183,94.0938495 L51.7403011,92.9405161 C51.2405161,93.7613763 50.4336344,94.1727742 49.3979355,94.1755699 C47.8572903,94.1605161 46.8579355,93.0893333 46.8740645,91.4381505" id="Fill-27" fill="#FFFFFF"></path>
                    <path d="M40.6410753,89.5104301 C40.4184946,90.5213978 40.8382796,91.3250538 41.6849462,91.5117204 C42.5447312,91.7009677 43.2782796,91.1377419 43.4980645,90.1394624 C43.7150538,89.154086 43.2855914,88.3347312 42.4260215,88.1454839 C41.5791398,87.9588172 40.8580645,88.5248387 40.6410753,89.5104301 L40.6410753,89.5104301 Z M39.1316129,86.0108602 C39.5627957,84.0525806 41.3277419,83.1396774 43.5273118,83.6239785 C44.7154839,83.8856989 45.7055914,84.506129 46.3610753,85.2007527 L45.2729032,86.5310753 C44.7494624,85.9596774 44.0473118,85.5364516 43.3141935,85.3751613 C42.2649462,85.1441935 41.5088172,85.5682796 41.32,86.4256989 L41.1595699,87.1553763 C41.7313978,86.6639785 42.4748387,86.4786022 43.3217204,86.6652688 C45.0408602,87.0437634 45.9615054,88.6422581 45.5191398,90.6517204 C45.0883871,92.61 43.6251613,93.6564516 41.9184946,93.2807527 C41.0436559,93.1013978 40.4341935,92.6183871 40.1113978,91.9164516 L39.9255914,92.7613978 L37.7511828,92.2826882 L39.1316129,86.0108602 Z" id="Fill-29" fill="#FFFFFF"></path>
                    <path d="M32.3333548,86.9598065 C31.9856129,87.7518495 32.2567957,88.4864731 32.9914194,88.8092688 C33.7023871,89.1215269 34.4202366,88.8069032 34.8929247,88.0843226 L32.3333548,86.9598065 Z M30.8561505,84.9798065 L35.3473333,86.9527097 C35.4830323,86.0961505 35.1277634,85.4247527 34.3692688,85.0916344 C33.8122796,84.8471183 33.1671183,84.8355054 32.5509892,85.0802366 L31.9415269,83.5385161 C32.9092688,83.1049677 34.0535699,83.1064731 35.2266882,83.621957 C37.3122796,84.537871 38.0363656,86.4305591 37.1722796,88.3983011 C36.2924946,90.4023871 34.361957,91.1288387 32.3828172,90.2593763 C30.1314194,89.2703441 29.6761505,87.2810968 30.8561505,84.9798065 L30.8561505,84.9798065 Z" id="Fill-31" fill="#FFFFFF"></path>
                    <polygon id="Fill-33" fill="#FFFFFF" points="31.2593548 81.6953978 26.1086022 89.9424946 24.2090323 88.7556129 29.3597849 80.5085161"></polygon>
                    <path d="M21.9887312,80.0262151 C21.4308817,80.6872903 21.4831398,81.4685806 22.0964731,81.986 C22.6900215,82.4868602 23.4674409,82.3881505 24.1259355,81.8290108 L21.9887312,80.0262151 Z M21.1323871,77.7092258 L24.8822796,80.8724516 C25.2549677,80.0896559 25.104,79.3451398 24.4708817,78.8109462 C24.0059355,78.4184731 23.3902366,78.2249247 22.7295914,78.2849247 L22.5816344,76.634172 C23.6328172,76.4920215 24.7300215,76.8176129 25.7093763,77.6440645 C27.4508817,79.1130968 27.6093763,81.1328817 26.2233548,82.7754624 C24.8117419,84.4481505 22.7545376,84.5986882 21.1020645,83.2044946 C19.2220645,81.6186882 19.3487312,79.5823441 21.1323871,77.7092258 L21.1323871,77.7092258 Z" id="Fill-35" fill="#FFFFFF"></path>
                    <path d="M14.160043,74.7616129 L15.7766022,74.4082796 C15.9632688,75.3482796 16.2695054,76.1041935 16.6426237,76.5515054 C16.8996129,76.8596774 17.2030538,76.977957 17.4544516,76.7678495 C18.1991828,76.1467742 15.4819785,73.6254839 17.3821935,72.0575269 C18.4993978,71.125914 19.9174624,71.577957 20.9955269,72.8704301 C21.7417634,73.7650538 22.2017634,74.8482796 22.2374624,75.914086 L20.6742366,76.2906452 C20.6011183,75.3233333 20.2621935,74.425914 19.7647742,73.8295699 C19.4828387,73.4915054 19.1548817,73.3437634 18.9032688,73.5534409 C18.1082151,74.2166667 20.8342366,76.646129 18.923914,78.2226882 C17.8067097,79.1543011 16.4234839,78.7233333 15.3869247,77.4807527 C14.7402581,76.7052688 14.3148817,75.7452688 14.160043,74.7616129" id="Fill-37" fill="#FFFFFF"></path>
                    <path d="M5.76539785,45.1104301 C5.76539785,45.9813978 5.12324731,47.034086 4.17313978,48.0609677 L1.41249462,51.0244086 L6.27894624,51.0244086 L6.27894624,52.0123656 L0.102817204,52.0123656 L0.102817204,51.1543011 L3.46690323,47.45 C4.22453763,46.6831183 4.6995914,45.8383871 4.6995914,45.2534409 C4.6995914,44.3695699 4.03184946,43.8366667 2.90195699,43.8366667 C2.08023656,43.8366667 1.16862366,44.2654839 0.449483871,44.9674194 L2.15053763e-05,44.1355914 C0.873139785,43.3426882 1.96453763,42.8747312 3.03034409,42.8747312 C4.68668817,42.8747312 5.76539785,43.7454839 5.76539785,45.1104301" id="Fill-39" fill="#FFFFFF"></path>
                    <path d="M8.66705376,47.4630108 C8.66705376,49.9195699 9.59156989,51.1544086 11.3378065,51.1544086 C13.084043,51.1544086 14.0085591,49.9195699 14.0085591,47.4630108 C14.0085591,44.9935484 13.084043,43.7716129 11.3378065,43.7716129 C9.59156989,43.7716129 8.66705376,44.9935484 8.66705376,47.4630108 M15.0485591,47.4630108 C15.0485591,50.4004301 13.7261935,52.0382796 11.3378065,52.0382796 C8.94941935,52.0382796 7.62705376,50.4004301 7.62705376,47.4630108 C7.62705376,44.5255914 8.94941935,42.887957 11.3378065,42.887957 C13.7261935,42.887957 15.0485591,44.5255914 15.0485591,47.4630108" id="Fill-41" fill="#FFFFFF"></path>
                    <polygon id="Fill-43" fill="#FFFFFF" points="89.9078065 52.0123226 89.9078065 43.9015699 88.0843656 43.9015699 88.0843656 42.9136129 90.9222151 42.9136129 90.9222151 52.0123226"></polygon>
                    <g id="Group-47" transform="translate(93.118280, 42.866022)">
                        <mask id="mask-2" fill="white">
                            <use xlink:href="#path-1"></use>
                        </mask>
                        <g id="Clip-46"></g>
                        <path d="M1.47597849,2.36139785 C1.47597849,3.33623656 2.22070968,3.90806452 3.47898925,3.90806452 C4.72458065,3.90806452 5.46931183,3.33623656 5.46931183,2.36139785 C5.46931183,1.38655914 4.72458065,0.814731183 3.47898925,0.814731183 C2.22070968,0.814731183 1.47597849,1.38655914 1.47597849,2.36139785 M1.12931183,6.50763441 C1.12931183,7.65150538 2.00243011,8.31451613 3.47898925,8.31451613 C4.93017204,8.31451613 5.81597849,7.65150538 5.81597849,6.50763441 C5.81597849,5.42892473 4.94286022,4.77903226 3.46630108,4.77903226 C2.00243011,4.77903226 1.12931183,5.42892473 1.12931183,6.50763441 M6.35533333,2.29623656 C6.35533333,3.23236559 5.80329032,3.9211828 4.89146237,4.28505376 C6.05984946,4.63602151 6.77898925,5.45494624 6.77898925,6.59860215 C6.77898925,8.22354839 5.50780645,9.19817204 3.47898925,9.19817204 C1.42458065,9.19817204 0.153397849,8.22354839 0.153397849,6.62462366 C0.153397849,5.46784946 0.898129032,4.63602151 2.09232258,4.28505376 C1.15490323,3.90806452 0.589956989,3.20634409 0.589956989,2.27043011 C0.589956989,0.853655914 1.70716129,0.00892473118 3.46630108,0.00892473118 C5.25103226,0.00892473118 6.35533333,0.86655914 6.35533333,2.29623656" id="Fill-45" fill="#FFFFFF" mask="url(#mask-2)"></path>
                    </g>
                </g>
            </g>
        </g>
    </g>
</svg>