<?xml version="1.0" encoding="UTF-8"?>
<svg width="20px" height="18px" viewBox="0 0 20 18" version="1.1" xmlns="http://www.w3.org/2000/svg" xmlns:xlink="http://www.w3.org/1999/xlink">
    <!-- Generator: Sketch 46.2 (44496) - http://www.bohemiancoding.com/sketch -->
    <title>mail</title>
    <desc>Created with Sketch.</desc>
    <defs></defs>
    <g id="Google-Dart" stroke="none" stroke-width="1" fill="none" fill-rule="evenodd">
        <g id="One-pager---Fase-1" transform="translate(-931.000000, -6349.000000)" fill-rule="nonzero" fill="#D8F0FA">
            <g id="Footer" transform="translate(229.000000, 5988.000000)">
                <g id="Icons" transform="translate(702.000000, 352.000000)">
                    <g id="mail" transform="translate(0.000000, 9.000000)">
                        <path d="M16.0558947,17.9448421 C15.9001053,17.9448421 15.7453684,17.8987368 15.6126316,17.8087368 L10.5977895,14.4070526 L7.90810526,16.3424211 C7.69715789,16.4941053 7.42526316,16.5323158 7.18031579,16.4447368 C6.93568421,16.3569474 6.74989474,16.1543158 6.68357895,15.9030526 L5.33305263,10.7849474 L0.507473684,8.93978947 C0.203684211,8.82357895 0.00221052632,8.53294737 5.9118834e-16,8.20768421 C-0.00221052632,7.88242105 0.195263158,7.58905263 0.497578947,7.46873684 L18.8462105,0.167684211 C18.9294737,0.132315789 19.0175789,0.111894737 19.1064211,0.106421053 C19.1382105,0.104526316 19.1701053,0.104526316 19.2017895,0.106315789 C19.3857895,0.117263158 19.5665263,0.192210526 19.7075789,0.330526316 C19.7222105,0.344842105 19.7361053,0.359473684 19.7492632,0.374736842 C19.8661053,0.508210526 19.9303158,0.670947368 19.9424211,0.836736842 C19.9453684,0.878421053 19.9451579,0.920631579 19.9414737,0.962842105 C19.9389474,0.992947368 19.9346316,1.02294737 19.9285263,1.05273684 L16.8313684,17.3031579 C16.7815789,17.5642105 16.6038947,17.7827368 16.3584211,17.8845263 C16.2610526,17.9249474 16.1582105,17.9448421 16.0558947,17.9448421 Z M11.0381053,12.7977895 L15.5051579,15.8277895 L17.9150526,3.18315789 L9.21115789,11.5585263 L11.0170526,12.7835789 C11.0243158,12.7881053 11.0312632,12.7929474 11.0381053,12.7977895 Z M7.31947368,12.124 L7.91757895,14.3903158 L9.20621053,13.4630526 L7.51884211,12.3184211 C7.44042105,12.2653684 7.37326316,12.1992632 7.31947368,12.124 Z M2.96168421,8.18757895 L6.27515789,9.45442105 C6.51252632,9.54515789 6.69168421,9.74473684 6.75652632,9.99042105 L7.17673684,11.5829474 C7.196,11.3992632 7.27926316,11.2264211 7.41452632,11.0962105 L15.7081053,3.11578947 L2.96168421,8.18757895 Z" id="Shape"></path>
                    </g>
                </g>
            </g>
        </g>
    </g>
</svg>