<?xml version="1.0" encoding="UTF-8"?>
<svg width="20px" height="14px" viewBox="0 0 20 14" version="1.1" xmlns="http://www.w3.org/2000/svg" xmlns:xlink="http://www.w3.org/1999/xlink">
    <!-- Generator: Sketch 46.2 (44496) - http://www.bohemiancoding.com/sketch -->
    <title>youtube</title>
    <desc>Created with Sketch.</desc>
    <defs></defs>
    <g id="Google-Dart" stroke="none" stroke-width="1" fill="none" fill-rule="evenodd">
        <g id="One-pager---Fase-1" transform="translate(-1137.000000, -6351.000000)" fill-rule="nonzero" fill="#D8F0FA">
            <g id="Footer" transform="translate(229.000000, 5988.000000)">
                <g id="Icons" transform="translate(702.000000, 352.000000)">
                    <g id="youtube" transform="translate(206.000000, 11.000000)">
                        <path d="M16.5089615,0 L3.49103847,0 C1.56605015,0 0,1.51997461 0,3.38822083 L0,10.6118717 C0,12.4801179 1.56605015,14 3.49103847,14 L16.5090569,14 C18.4339498,14 20,12.4801179 20,10.6118717 L20,3.38822083 C19.9999046,1.51997461 18.4338545,0 16.5089615,0 Z M18.5691121,10.6117792 C18.5691121,11.7145313 17.6449154,12.6116337 16.5089615,12.6116337 L3.49103847,12.6116337 C2.35498917,12.6116337 1.43079256,11.7145313 1.43079256,10.6117792 L1.43079256,3.38812828 C1.43079256,2.28537619 2.35498917,1.38827371 3.49103847,1.38827371 L16.5090569,1.38827371 C17.6450108,1.38827371 18.5692074,2.28537619 18.5692074,3.38812828 L18.5692074,10.6117792 L18.5691121,10.6117792 Z" id="Shape"></path>
                        <path d="M13.6656468,6.43231864 L8.15298317,3.1121639 C7.92462746,2.9745564 7.63201881,2.96277959 7.39107032,3.08118183 C7.15022098,3.19967466 7,3.42950366 7,3.67944382 L7,10.3205686 C7,10.5705088 7.15022098,10.8002472 7.39107032,10.9188306 C7.50143068,10.9731851 7.62269817,11 7.74356904,11 C7.88655165,11 8.02923678,10.9624048 8.15298317,10.8877579 L13.6656468,7.56678788 C13.8743697,7.44104778 14,7.22797809 14,6.99950796 C14,6.77112842 13.8743697,6.55805874 13.6656468,6.43231864 Z M8.48733639,9.05872863 L8.48733639,4.94110262 L11.9053346,6.99959855 L8.48733639,9.05872863 Z" id="Shape"></path>
                    </g>
                </g>
            </g>
        </g>
    </g>
</svg>