<?xml version="1.0" encoding="UTF-8"?>
<svg width="24px" height="25px" viewBox="0 0 24 25" version="1.1" xmlns="http://www.w3.org/2000/svg" xmlns:xlink="http://www.w3.org/1999/xlink">
    <!-- Generator: Sketch 47.1 (45422) - http://www.bohemiancoding.com/sketch -->
    <title>linkedin</title>
    <desc>Created with Sketch.</desc>
    <defs></defs>
    <g id="Google-Dart" stroke="none" stroke-width="1" fill="none" fill-rule="evenodd">
        <g id="One-pager---Fase-2---Overlay-speaker" transform="translate(-503.000000, -828.000000)" fill-rule="nonzero" fill="#D8F0FA">
            <g id="Speaker-overlay">
                <g id="Speaker" transform="translate(383.000000, 432.000000)">
                    <g id="Social-media">
                        <g transform="translate(40.000000, 396.000000)">
                            <g id="linkedin" transform="translate(80.562092, 0.000000)">
                                <path d="M1.38251634,5.85245098 C0.705718954,5.85245098 0.157026144,6.40114379 0.157026144,7.07794118 L0.157026144,23.6464052 C0.157026144,24.3232026 0.705718954,24.8718954 1.38251634,24.8718954 C2.05931373,24.8718954 2.60800654,24.3232026 2.60800654,23.6464052 L2.60800654,7.07794118 C2.60800654,6.40098039 2.05931373,5.85245098 1.38251634,5.85245098 Z" id="Shape"></path>
                                <path d="M10.1325163,18.7996732 C9.45571895,18.7996732 8.90702614,19.348366 8.90702614,20.0251634 L8.90702614,23.6464052 C8.90702614,24.3232026 9.45571895,24.8718954 10.1325163,24.8718954 C10.8093137,24.8718954 11.3580065,24.3232026 11.3580065,23.6464052 L11.3580065,20.0251634 C11.3580065,19.348366 10.8093137,18.7996732 10.1325163,18.7996732 Z" id="Shape"></path>
                                <path d="M15.8308824,7.17156863 C14.1267974,7.17156863 12.5656863,7.79150327 11.3580065,8.81617647 L11.3580065,7.07794118 C11.3580065,6.40114379 10.8093137,5.85245098 10.1325163,5.85245098 C9.45571895,5.85245098 8.90702614,6.40114379 8.90702614,7.07794118 L8.90702614,14.0937908 C8.90702614,14.0939542 8.90702614,14.0941176 8.90702614,14.094281 C8.90702614,14.0946078 8.90702614,14.0947712 8.90702614,14.0952614 C8.90702614,14.7720588 9.45571895,15.3207516 10.1325163,15.3207516 C10.8093137,15.3207516 11.3580065,14.7720588 11.3580065,14.0952614 C11.3580065,11.6289216 13.3645425,9.62254902 15.8308824,9.62254902 C18.2970588,9.62254902 20.3034314,11.6289216 20.3034314,14.0952614 L20.3034314,23.6464052 C20.3034314,24.3232026 20.8521242,24.8718954 21.5289216,24.8718954 C22.2058824,24.8718954 22.7544118,24.3232026 22.7544118,23.6464052 L22.7544118,14.0952614 C22.7544118,10.277451 19.6486928,7.17156863 15.8308824,7.17156863 Z" id="Shape"></path>
                                <path d="M1.38218954,2.45098039 C1.70408497,2.45098039 2.02107843,2.32026144 2.2498366,2.09313725 C2.47696078,1.86437908 2.60767974,1.54901961 2.60767974,1.22712418 C2.60767974,0.903594771 2.47696078,0.588235294 2.2498366,0.359477124 C2.02107843,0.132352941 1.70408497,8.8817842e-16 1.38218954,8.8817842e-16 C1.06029412,8.8817842e-16 0.744934641,0.132352941 0.516176471,0.359477124 C0.287418301,0.588235294 0.156699346,0.903594771 0.156699346,1.22712418 C0.156699346,1.54901961 0.287418301,1.86437908 0.516176471,2.09313725 C0.744934641,2.32026144 1.06029412,2.45098039 1.38218954,2.45098039 Z" id="Shape"></path>
                            </g>
                        </g>
                    </g>
                </g>
            </g>
        </g>
    </g>
</svg>