<?xml version="1.0" encoding="UTF-8"?>
<svg width="25px" height="23px" viewBox="0 0 25 23" version="1.1" xmlns="http://www.w3.org/2000/svg" xmlns:xlink="http://www.w3.org/1999/xlink">
    <!-- Generator: Sketch 47.1 (45422) - http://www.bohemiancoding.com/sketch -->
    <title>Shape</title>
    <desc>Created with Sketch.</desc>
    <defs></defs>
    <g id="Google-Dart" stroke="none" stroke-width="1" fill="none" fill-rule="evenodd">
        <g id="One-pager---Fase-2---Overlay-speaker" transform="translate(-582.000000, -830.000000)" fill-rule="nonzero" fill="#D8F0FA">
            <g id="Speaker-overlay">
                <g id="Speaker" transform="translate(383.000000, 432.000000)">
                    <g id="Social-media">
                        <g transform="translate(40.000000, 396.000000)">
                            <g id="002-telegram-logo" transform="translate(159.000000, 2.000000)">
                                <path d="M20.0698684,22.4310526 C19.8751316,22.4310526 19.6817105,22.3734211 19.5157895,22.2609211 L13.2472368,18.0088158 L9.88513158,20.4280263 C9.62144737,20.6176316 9.28157895,20.6653947 8.97539474,20.5559211 C8.66960526,20.4461842 8.43736842,20.1928947 8.35447368,19.8788158 L6.66631579,13.4811842 L0.634342105,11.1747368 C0.254605263,11.0294737 0.00276315789,10.6661842 7.39002365e-16,10.2596053 C-0.00276315789,9.85302632 0.244078947,9.48631579 0.621973684,9.33592105 L23.5577632,0.209605263 C23.6618421,0.165394737 23.7719737,0.139868421 23.8830263,0.133026316 C23.9227632,0.130657895 23.9626316,0.130657895 24.0022368,0.132894737 C24.2322368,0.146578947 24.4581579,0.240263158 24.6344737,0.413157895 C24.6527632,0.431052632 24.6701316,0.449342105 24.6865789,0.468421053 C24.8326316,0.635263158 24.9128947,0.838684211 24.9280263,1.04592105 C24.9317105,1.09802632 24.9314474,1.15078947 24.9268421,1.20355263 C24.9236842,1.24118421 24.9182895,1.27868421 24.9106579,1.31592105 L21.0392105,21.6289474 C20.9769737,21.9552632 20.7548684,22.2284211 20.4480263,22.3556579 C20.3263158,22.4061842 20.1977632,22.4310526 20.0698684,22.4310526 Z M13.7976316,15.9972368 L19.3814474,19.7847368 L22.3938158,3.97894737 L11.5139474,14.4481579 L13.7713158,15.9794737 C13.7803947,15.9851316 13.7890789,15.9911842 13.7976316,15.9972368 Z M9.14934211,15.155 L9.89697368,17.9878947 L11.5077632,16.8288158 L9.39855263,15.3980263 C9.30052632,15.3317105 9.21657895,15.2490789 9.14934211,15.155 Z M3.70210526,10.2344737 L7.84394737,11.8180263 C8.14065789,11.9314474 8.36460526,12.1809211 8.44565789,12.4880263 L8.97092105,14.4786842 C8.995,14.2490789 9.09907895,14.0330263 9.26815789,13.8702632 L19.6351316,3.89473684 L3.70210526,10.2344737 Z" id="Shape"></path>
                            </g>
                        </g>
                    </g>
                </g>
            </g>
        </g>
    </g>
</svg>