<?xml version="1.0" encoding="utf-8"?>
<!-- Generator: Adobe Illustrator 21.1.0, SVG Export Plug-In . SVG Version: 6.00 Build 0)  -->
<svg version="1.1" id="Layer_1" xmlns="http://www.w3.org/2000/svg" xmlns:xlink="http://www.w3.org/1999/xlink" x="0px" y="0px"
	 viewBox="0 0 33.9 463.8" style="enable-background:new 0 0 33.9 463.8;" xml:space="preserve">
<style type="text/css">
	.st0{fill:#FFA4FF;}
</style>
<path class="st0" d="M30.6,33c0-1.8-0.4-3.4-1.3-4.6c-0.9-1.2-2.2-2.4-4-3.3c-1.8-0.9-4.6-2-8.3-3c-3.7-1-6.5-2-8.3-3.1
	c-1.8-1-3.2-2.2-4.1-3.6c-0.9-1.4-1.3-3-1.3-5c0-3.1,1.3-5.6,3.9-7.5C9.8,1,13.2,0,17.4,0c2.7,0,5.2,0.5,7.4,1.6
	c2.2,1.1,3.9,2.6,5.1,4.5c1.2,1.9,1.8,4.1,1.8,6.5h-1.6c0-3.2-1.2-5.8-3.5-7.9c-2.3-2.1-5.4-3.1-9.1-3.1c-3.8,0-6.8,0.8-9.1,2.5
	s-3.5,3.7-3.5,6.3s1,4.6,3,6.2c2,1.6,5.3,2.9,10,4.1s8,2.6,10.2,4.2c2.7,2,4.1,4.7,4.1,8.1c0,2.1-0.6,4-1.8,5.7s-2.9,2.9-5.2,3.8
	c-2.3,0.9-4.7,1.3-7.5,1.3c-3.1,0-5.9-0.5-8.3-1.5s-4.3-2.5-5.6-4.4c-1.2-1.9-1.9-4.1-1.9-6.7h1.6c0,3.5,1.3,6.2,3.9,8.1
	c2.6,1.9,6,2.9,10.2,2.9c3.7,0,6.8-0.9,9.2-2.6C29.4,38,30.6,35.7,30.6,33z M31.8,73.1c0,3.9-1.2,6.9-3.5,9c-2.4,2.1-5.7,3.2-10,3.2
	h-12v17.9H4.7V60.6H18c4.4,0,7.7,1.1,10.2,3.3C30.6,66.1,31.8,69.1,31.8,73.1z M30.2,73c0-3.4-1.1-6.1-3.2-8c-2.1-1.9-5.1-2.9-9-2.9
	H6.3v21.5H18c3.8,0,6.8-0.9,9-2.8C29.1,78.9,30.2,76.4,30.2,73z M31.7,122.2v-1.6h-26v42.7h26v-1.6H7.3v-19.6h21.3h0.1v-1.6H7.3
	v-18.3H31.7z M6.4,210.5l-4.7,12.7H0l16-42.7h1.9l16,42.7h-1.7l-4.9-12.7H6.4z M7,208.9h19.7l-9.8-26.4L7,208.9z M32.3,240.5H30
	l-17.7,17.8l-7,6.9v-24.7H3.7v42.7h1.6v-16.1l6.8-6.3l19.6,22.3h2.1l-20.5-23.5L32.3,240.5z M31.7,302.2v-1.6h-26v42.7h26v-1.6H7.3
	v-19.6h21.3h0.1v-1.6H7.3v-18.3H31.7z M21,384.6l11.4,18.3v0.4h-1.7L19.4,385H4.6v18.3H3v-42.7h13.6c4.3,0,7.7,1.1,10.2,3.3
	c2.5,2.2,3.8,5.2,3.8,9c0,2.9-0.9,5.5-2.7,7.6C26.1,382.7,23.8,384,21,384.6z M26,380.4c2.1-2,3-4.5,3-7.5c0-3.3-1.1-5.9-3.4-7.9
	c-2.2-1.9-5.3-2.9-9.2-2.9H4.6v21.3H18C21.3,383.4,23.9,382.4,26,380.4z M28.1,444.9c-2.2-1.6-5.5-3-10.2-4.2s-8-2.5-10-4.1
	c-2-1.6-3-3.6-3-6.2c0-2.5,1.2-4.6,3.5-6.3s5.3-2.5,9.1-2.5c3.7,0,6.8,1,9.1,3.1c2.3,2.1,3.5,4.7,3.5,7.9h1.6c0-2.4-0.6-4.6-1.8-6.5
	c-1.2-1.9-2.9-3.4-5.1-4.5c-2.2-1.1-4.7-1.6-7.4-1.6c-4.2,0-7.6,1-10.2,2.9c-2.6,1.9-3.9,4.4-3.9,7.5c0,2,0.4,3.6,1.3,5
	c0.9,1.4,2.3,2.5,4.1,3.6c1.8,1.1,4.6,2.1,8.3,3.1c3.7,1,6.5,2.1,8.3,3c1.8,0.9,3.1,2.1,4,3.3c0.9,1.2,1.3,2.8,1.3,4.6
	c0,2.7-1.2,5-3.8,6.6c-2.4,1.7-5.5,2.6-9.2,2.6c-4.2,0-7.6-1-10.2-2.9c-2.6-1.9-3.9-4.6-3.9-8.1H1.9c0,2.6,0.6,4.8,1.9,6.7
	c1.3,1.9,3.2,3.4,5.6,4.4s5.2,1.5,8.3,1.5c2.8,0,5.2-0.4,7.5-1.3c2.3-0.9,4-2.1,5.2-3.8s1.8-3.6,1.8-5.7
	C32.2,449.6,30.8,446.9,28.1,444.9z"/>
</svg>
