<?xml version="1.0" encoding="UTF-8"?>
<svg width="40px" height="403px" viewBox="0 0 40 403" version="1.1" xmlns="http://www.w3.org/2000/svg" xmlns:xlink="http://www.w3.org/1999/xlink">
    <!-- Generator: Sketch 47 (45396) - http://www.bohemiancoding.com/sketch -->
    <title>Program</title>
    <desc>Created with Sketch.</desc>
    <defs></defs>
    <g id="Google-Dart" stroke="none" stroke-width="1" fill="none" fill-rule="evenodd">
        <g id="One-pager---Fase-2---Hover-states" transform="translate(-174.000000, -3204.000000)" fill="#FFB7FF">
            <g id="Programme" transform="translate(160.000000, 3194.000000)">
                <path d="M23.3964844,34.6894531 L23.3964844,53 L21.8144531,53 L21.8144531,10.34375 L35.1445312,10.34375 C39.5586158,10.34375 42.9570193,11.4521374 45.3398438,13.6689453 C47.7226682,15.8857533 48.9140625,18.8300598 48.9140625,22.5019531 C48.9140625,26.2129092 47.7275509,29.171864 45.3544922,31.3789062 C42.9814334,33.5859485 39.5781472,34.6894531 35.1445312,34.6894531 L23.3964844,34.6894531 Z M23.3964844,33.1074219 L35.1445312,33.1074219 C39.1875202,33.1074219 42.229482,32.1015726 44.2705078,30.0898438 C46.3115336,28.0781149 47.3320312,25.5683744 47.3320312,22.5605469 C47.3320312,19.4745939 46.3164164,16.9306741 44.2851562,14.9287109 C42.2538961,12.9267478 39.2070516,11.9257812 35.1445312,11.9257812 L23.3964844,11.9257812 L23.3964844,33.1074219 Z M21.6386719,92.9902344 L21.6386719,113.029297 L20.0566406,113.029297 L20.0566406,70.3730469 L33.6503906,70.3730469 C38.1426006,70.3730469 41.5995973,71.3447168 44.0214844,73.2880859 C46.4433715,75.231455 47.6542969,78.0683407 47.6542969,81.7988281 C47.6542969,84.2011839 46.887703,86.3837792 45.3544922,88.3466797 C43.8212814,90.3095801 41.7265758,91.5839814 39.0703125,92.1699219 C42.1367341,92.6972683 44.3339777,93.8203039 45.6621094,95.5390625 C46.990241,97.2578211 47.6542969,99.4550647 47.6542969,102.130859 L47.6542969,106.144531 C47.6542969,107.472663 47.8154281,108.664057 48.1376953,109.71875 C48.4599625,110.773443 48.9921838,111.632809 49.734375,112.296875 L49.734375,113.029297 L48.1816406,113.029297 C47.4785121,112.228512 46.9511736,111.237311 46.5996094,110.055664 C46.2480451,108.874018 46.0722656,107.550789 46.0722656,106.085938 L46.0722656,102.189453 C46.0722656,99.2988137 45.0810646,97.0429769 43.0986328,95.421875 C41.116201,93.8007731 38.2890809,92.9902344 34.6171875,92.9902344 L21.6386719,92.9902344 Z M21.6386719,91.4082031 L33.3574219,91.4082031 C37.7129124,91.4082031 40.9208881,90.4902436 42.9814453,88.6542969 C45.0420025,86.8183502 46.0722656,84.5332168 46.0722656,81.7988281 C46.0722656,78.6152185 45.032237,76.1787194 42.9521484,74.4892578 C40.8720599,72.7997962 37.771505,71.9550781 33.6503906,71.9550781 L21.6386719,71.9550781 L21.6386719,91.4082031 Z M50.0566406,154.865234 C50.0566406,160.626982 48.6308736,165.192366 45.7792969,168.561523 C42.9277201,171.930681 39.0019781,173.615234 34.0019531,173.615234 C28.9823968,173.615234 25.0420065,171.930681 22.1806641,168.561523 C19.3193216,165.192366 17.8886719,160.626982 17.8886719,154.865234 L17.8886719,148.478516 C17.8886719,142.736299 19.3095561,138.175798 22.1513672,134.796875 C24.9931783,131.417952 28.923803,129.728516 33.9433594,129.728516 C38.9433844,129.728516 42.8788919,131.417952 45.75,134.796875 C48.6211081,138.175798 50.0566406,142.736299 50.0566406,148.478516 L50.0566406,154.865234 Z M48.4746094,148.419922 C48.4746094,143.185521 47.2148563,139.025406 44.6953125,135.939453 C42.1757687,132.8535 38.5918201,131.310547 33.9433594,131.310547 C29.31443,131.310547 25.7500125,132.8535 23.25,135.939453 C20.7499875,139.025406 19.5,143.185521 19.5,148.419922 L19.5,154.865234 C19.5,160.138698 20.7548703,164.318344 23.2646484,167.404297 C25.7744266,170.49025 29.3534924,172.033203 34.0019531,172.033203 C38.6504139,172.033203 42.2245969,170.495133 44.7246094,167.418945 C47.2246219,164.342758 48.4746094,160.15823 48.4746094,154.865234 L48.4746094,148.419922 Z M49.2949219,228.429688 C48.3964799,229.679694 46.6728643,230.85644 44.1240234,231.959961 C41.5751826,233.063482 38.4453311,233.615234 34.734375,233.615234 C29.8515381,233.615234 25.8916167,231.876971 22.8544922,228.400391 C19.8173676,224.923811 18.2988281,220.402372 18.2988281,214.835938 L18.2988281,207.863281 C18.2988281,202.511692 19.7734228,198.151384 22.7226562,194.782227 C25.6718897,191.413069 29.509742,189.728516 34.2363281,189.728516 C38.7480694,189.728516 42.3271352,190.895496 44.9736328,193.229492 C47.6201304,195.563488 48.972656,198.576153 49.03125,202.267578 L48.9726562,202.443359 L47.6542969,202.443359 C47.4980461,199.142562 46.2822379,196.461924 44.0068359,194.401367 C41.7314339,192.34081 38.4746306,191.310547 34.2363281,191.310547 C29.9199003,191.310547 26.4482553,192.848617 23.8212891,195.924805 C21.1943228,199.000992 19.8808594,202.960913 19.8808594,207.804688 L19.8808594,214.835938 C19.8808594,219.914088 21.2382677,224.049789 23.953125,227.243164 C26.6679823,230.436539 30.2616964,232.033203 34.734375,232.033203 C37.878922,232.033203 40.6279179,231.574223 42.9814453,230.65625 C45.3349727,229.738277 46.9121054,228.751958 47.7128906,227.697266 L47.7128906,215.275391 L34.6757812,215.275391 L34.6757812,213.664062 L49.2949219,213.664062 L49.2949219,228.429688 Z M21.6386719,272.990234 L21.6386719,293.029297 L20.0566406,293.029297 L20.0566406,250.373047 L33.6503906,250.373047 C38.1426006,250.373047 41.5995973,251.344717 44.0214844,253.288086 C46.4433715,255.231455 47.6542969,258.068341 47.6542969,261.798828 C47.6542969,264.201184 46.887703,266.383779 45.3544922,268.34668 C43.8212814,270.30958 41.7265758,271.583981 39.0703125,272.169922 C42.1367341,272.697268 44.3339777,273.820304 45.6621094,275.539062 C46.990241,277.257821 47.6542969,279.455065 47.6542969,282.130859 L47.6542969,286.144531 C47.6542969,287.472663 47.8154281,288.664057 48.1376953,289.71875 C48.4599625,290.773443 48.9921838,291.632809 49.734375,292.296875 L49.734375,293.029297 L48.1816406,293.029297 C47.4785121,292.228512 46.9511736,291.237311 46.5996094,290.055664 C46.2480451,288.874018 46.0722656,287.550789 46.0722656,286.085938 L46.0722656,282.189453 C46.0722656,279.298814 45.0810646,277.042977 43.0986328,275.421875 C41.116201,273.800773 38.2890809,272.990234 34.6171875,272.990234 L21.6386719,272.990234 Z M21.6386719,271.408203 L33.3574219,271.408203 C37.7129124,271.408203 40.9208881,270.490244 42.9814453,268.654297 C45.0420025,266.81835 46.0722656,264.533217 46.0722656,261.798828 C46.0722656,258.615218 45.032237,256.178719 42.9521484,254.489258 C40.8720599,252.799796 37.771505,251.955078 33.6503906,251.955078 L21.6386719,251.955078 L21.6386719,271.408203 Z M44.3876953,340.255859 L23.5283203,340.255859 L18.7822266,353 L17.0537109,353 L32.9912109,310.34375 L34.9248047,310.34375 L50.8916016,353 L49.1630859,353 L44.3876953,340.255859 Z M24.1142578,338.673828 L43.8017578,338.673828 L34.8662109,314.650391 L34.0458984,312.248047 L33.8701172,312.248047 L33.0791016,314.650391 L24.1142578,338.673828 Z M16.3652344,370.34375 L33.8261719,410.480469 L34.0019531,410.480469 L51.5214844,370.34375 L53.8359375,370.34375 L53.8359375,413 L52.2539062,413 L52.2539062,373.126953 L52.078125,373.068359 L34.5585938,413 L33.2988281,413 L15.8671875,373.273438 L15.6914062,373.332031 L15.6914062,413 L14.109375,413 L14.109375,370.34375 L16.3652344,370.34375 Z" id="Program"></path>
            </g>
        </g>
    </g>
</svg>