<?xml version="1.0" encoding="utf-8"?>
<!-- Generator: Adobe Illustrator 21.1.0, SVG Export Plug-In . SVG Version: 6.00 Build 0)  -->
<svg version="1.1" id="Layer_1" xmlns="http://www.w3.org/2000/svg" xmlns:xlink="http://www.w3.org/1999/xlink" x="0px" y="0px"
	 viewBox="0 0 39.8 402.7" style="enable-background:new 0 0 39.8 402.7;" xml:space="preserve">
<style type="text/css">
	.st0{fill:#FFA4FF;}
</style>
<path class="st0" d="M9.4,24.7h12c4.3,0,7.6-1.1,10-3.2c2.3-2.1,3.5-5.1,3.5-9c0-4-1.2-7-3.6-9.2C28.8,1.1,25.5,0,21.1,0H7.8v42.6
	h1.6V24.7z M9.4,1.5h11.7c3.9,0,6.9,1,9,2.9c2.1,1.9,3.2,4.6,3.2,8c0,3.4-1.1,5.9-3.2,7.8c-2.2,1.9-5.2,2.8-9,2.8H9.4V1.5z
	 M7.7,84.4h14.8l11.3,18.3h1.7v-0.4L24.1,84c2.8-0.6,5.1-1.9,6.9-4.1c1.8-2.1,2.7-4.7,2.7-7.6c0-3.8-1.3-6.8-3.8-9
	C27.4,61.1,24,60,19.7,60H6.1v42.7h1.6V84.4z M7.7,61.5h11.8c3.9,0,7,1,9.2,2.9c2.3,2,3.4,4.6,3.4,7.9c0,3-0.9,5.5-3,7.5
	c-2.1,2-4.7,3-8,3H7.7V61.5z M20.1,163.2c3.1,0,6-0.7,8.4-2.3c2.4-1.6,4.3-3.8,5.6-6.6c1.3-2.8,2-6.1,2-9.8h0.1v-6.4
	c0-3.7-0.6-7-2-9.8c-1.4-2.8-3.2-5-5.7-6.6c-2.5-1.5-5.3-2.3-8.5-2.3c-3.1,0-5.9,0.7-8.4,2.3c-2.5,1.5-4.4,3.7-5.7,6.6
	c-1.3,2.9-2,6.1-2,9.8v6.2c0,5.8,1.5,10.4,4.5,13.8S15.3,163.2,20.1,163.2z M5.6,144.3v-6.2c0-5.3,1.3-9.5,3.9-12.6
	c2.6-3.1,6.1-4.6,10.5-4.6s8,1.6,10.6,4.7c2.6,3.1,3.9,7.2,3.9,12.4h0.2v6c0,5.4-1.3,9.6-3.9,12.7c-2.6,3.1-6.1,4.7-10.6,4.7
	c-3,0-5.5-0.7-7.7-2.1c-2.2-1.4-3.9-3.4-5.1-6C6.2,150.7,5.6,147.7,5.6,144.3z M5.7,197.9v6.8c0,3.3,0.6,6.3,1.9,8.9
	c1.2,2.6,3,4.6,5.2,6.1s4.8,2.2,7.7,2.2s5.5-0.4,7.9-1.3c2.4-0.8,4.1-1.9,5-3.1v-12.4h-13v-1.8H35v14.8h0.3c-1.1,1.5-3,2.7-5.7,3.7
	c-2.7,1-5.7,1.5-8.9,1.5s-6-0.8-8.5-2.3s-4.4-3.7-5.8-6.5c-1.4-2.8-2.1-6-2.2-9.6v-7.3c0-3.5,0.7-6.6,2-9.4s3.2-4.9,5.7-6.4
	s5.2-2.3,8.2-2.3c4.2,0,7.7,1.1,10.4,3.3s4.2,5.1,4.6,8.9h-1.6c-0.5-3.4-1.9-6-4.2-7.8s-5.4-2.7-9.2-2.7c-4.3,0-7.8,1.5-10.4,4.6
	C7.1,188.9,5.7,192.9,5.7,197.9z M7.7,264.4h14.8l11.3,18.3h1.7v-0.4L24.1,264c2.8-0.6,5.1-1.9,6.9-4.1c1.8-2.1,2.7-4.7,2.7-7.6
	c0-3.8-1.3-6.8-3.8-9S24,240,19.7,240H6.1v42.7h1.6V264.4z M7.7,241.5h11.8c3.9,0,7,1,9.2,2.9c2.3,2,3.4,4.6,3.4,7.9
	c0,3-0.9,5.5-3,7.5c-2.1,2-4.7,3-8,3H7.7V241.5z M9.5,329.9h20.9l4.9,12.7H37l-16-42.7h-1.9l-16,42.7h1.7L9.5,329.9z M20,301.9
	l9.8,26.4H10.1L20,301.9z M39.8,360v42.7h-1.6v-40.4l-17.7,40.3h-1.3L1.6,362.5v40.1H0v-42.7h2.4v0.1l17.5,40.3L37.5,360H39.8z"/>
</svg>
