<?xml version="1.0" encoding="utf-8"?>
<!-- Generator: Adobe Illustrator 21.1.0, SVG Export Plug-In . SVG Version: 6.00 Build 0)  -->
<svg version="1.1" id="Layer_1" xmlns="http://www.w3.org/2000/svg" xmlns:xlink="http://www.w3.org/1999/xlink" x="0px" y="0px"
	 viewBox="0 0 33.7 551.9" style="enable-background:new 0 0 33.7 551.9;" xml:space="preserve">
<style type="text/css">
	.st0{fill:#FFA4FF;}
</style>
<path class="st0" d="M31.7,42.7h-26V0h26v1.6H7.3v18.3h21.4v1.6h-0.1H7.3v19.6h24.4V42.7z M17.9,102.6L33.7,60H32L17.7,98.5
	l-0.8,2.6l-0.8-2.6L1.7,60H0l15.9,42.6H17.9z M31.7,121.6V120h-26v42.7h26v-1.6H7.3v-19.6h21.3h0.1v-1.6H7.3v-18.3H31.7z M1.6,179.9
	v42.7h1.6v-40l27.5,40h1.6v-42.7h-1.6v39.9L3.2,179.9H1.6z M0.6,241.6h15.5v41.1h1.6v-41.1h15.5V240H0.6V241.6z M16.1,328.6v42.7
	h1.6v-42.7H16.1z M1.6,388.6v42.7h1.6v-40l27.5,40h1.6v-42.7h-1.6v39.9L3.2,388.6H1.6z M32,450.2v-1.6H5.6v42.7h1.6v-21H29h0.1v-1.6
	H7.2v-18.5H32z M31.1,517c1.4,2.8,2,6.1,2,9.8v6.4H33c0,3.7-0.7,7-2,9.8c-1.3,2.8-3.2,5-5.6,6.6s-5.3,2.3-8.4,2.3
	c-4.8,0-8.7-1.7-11.7-5.1s-4.5-8-4.5-13.8v-6.2c0-3.7,0.7-6.9,2-9.8c1.3-2.9,3.2-5.1,5.7-6.6c2.5-1.6,5.3-2.3,8.4-2.3
	c3.2,0,6,0.8,8.5,2.3C27.9,512,29.7,514.2,31.1,517z M31.4,526.8c0-5.2-1.3-9.3-3.9-12.4c-2.6-3.1-6.2-4.7-10.6-4.7
	s-7.9,1.5-10.5,4.6s-3.9,7.3-3.9,12.6v6.2c0,3.4,0.6,6.4,1.8,9c1.2,2.6,2.9,4.6,5.1,6s4.7,2.1,7.7,2.1c4.5,0,8-1.6,10.6-4.7
	c2.6-3.1,3.9-7.3,3.9-12.7v-6H31.4z"/>
</svg>
