<?xml version="1.0" encoding="UTF-8"?>
<svg width="25px" height="21px" viewBox="0 0 25 21" version="1.1" xmlns="http://www.w3.org/2000/svg" xmlns:xlink="http://www.w3.org/1999/xlink">
    <!-- Generator: Sketch 47.1 (45422) - http://www.bohemiancoding.com/sketch -->
    <title>001-twitter-logo</title>
    <desc>Created with Sketch.</desc>
    <defs></defs>
    <g id="Google-Dart" stroke="none" stroke-width="1" fill="none" fill-rule="evenodd">
        <g id="One-pager---Fase-2---Overlay-speaker" transform="translate(-423.000000, -831.000000)" fill-rule="nonzero" fill="#D8F0FA">
            <g id="Speaker-overlay">
                <g id="Speaker" transform="translate(383.000000, 432.000000)">
                    <g id="Social-media">
                        <g transform="translate(40.000000, 396.000000)">
                            <g id="001-twitter-logo" transform="translate(0.000000, 3.000000)">
                                <path d="M24.7988693,2.94962312 C24.5023869,2.52236181 23.915201,2.4160804 23.4875628,2.71268844 L20.5619347,4.74271357 C20.2962312,4.92701005 20.1437186,5.23467337 20.1576633,5.55766332 C20.1660804,5.75138191 20.1702261,5.9330402 20.1702261,6.1129397 C20.1702261,12.0932161 15.6197236,18.2787688 8.00452261,18.2787688 C6.45213568,18.2787688 4.92701005,17.9832915 3.50163317,17.4133166 L8.01658291,16.1505025 C8.51771357,16.0103015 8.81030151,15.4904523 8.6701005,14.9893216 C8.5298995,14.4883166 8.01055276,14.195603 7.5089196,14.335804 L0.688442211,16.243593 C0.330904523,16.343593 0.0654522613,16.6442211 0.0104271357,17.0114322 C-0.0444723618,17.3785176 0.121231156,17.7438442 0.43379397,17.9442211 C2.69811558,19.3958543 5.3160804,20.1633166 8.00452261,20.1633166 C13.2880653,20.1633166 16.5972362,17.6670854 18.4430905,15.5731156 C20.7383166,12.9690955 22.0546482,9.52110553 22.0546482,6.11306533 C22.0546482,6.07575377 22.0545226,6.03844221 22.0542714,6.00100503 L24.5619347,4.26105528 C24.9893216,3.96432161 25.0954774,3.37726131 24.7988693,2.94962312 Z" id="Shape"></path>
                                <path d="M2.07977387,2.65577889 L11.5753769,7.46922111 C11.7100503,7.53756281 11.8560302,7.57110553 12.0012563,7.57110553 C12.2080402,7.57110553 12.4135678,7.5031407 12.5827889,7.37035176 C12.8708543,7.14447236 13.0020101,6.77223618 12.9190955,6.41557789 C12.8561558,6.14497487 12.8243719,5.86331658 12.8243719,5.57864322 C12.8243719,3.55816583 14.4684673,1.91432161 16.4893216,1.91432161 C17.4994975,1.91432161 18.4747487,2.33605528 19.1646985,3.07148241 C19.4224874,3.34635678 19.8193467,3.44095477 20.1736181,3.31231156 L23.1042714,2.24748744 C23.5933417,2.06972362 23.8458543,1.52927136 23.6680905,1.04020101 C23.4904523,0.551005025 22.9494975,0.298869347 22.460804,0.47638191 L20.076005,1.3428392 C19.0798995,0.502135678 17.8042714,0.0297738693 16.4893216,0.0297738693 C13.6086683,0.0297738693 11.2336683,2.23592965 10.965201,5.04711055 L2.93178392,0.975 C2.46758794,0.739572864 1.90062814,0.925251256 1.66532663,1.38932161 C1.43002513,1.85351759 1.61557789,2.42047739 2.07977387,2.65577889 Z" id="Shape"></path>
                                <path d="M1.59409548,8.29811558 L3.68052764,8.8741206 C3.76444724,8.89736181 3.84874372,8.90829146 3.93178392,8.90829146 C4.34497487,8.90829146 4.7241206,8.63429648 4.83944724,8.21658291 C4.97801508,7.71507538 4.68354271,7.19610553 4.18203518,7.05753769 L2.09560302,6.48153266 C1.59434673,6.34309045 1.07512563,6.63731156 0.936557789,7.13894472 C0.798115578,7.64070352 1.09246231,8.15954774 1.59409548,8.29811558 Z" id="Shape"></path>
                                <path d="M3.42336683,11.1025126 C2.90339196,11.1222362 2.49786432,11.5596734 2.51758794,12.0796482 C2.53680905,12.5875628 2.95452261,12.9861809 3.45854271,12.9861809 C3.47060302,12.9861809 3.48266332,12.9859296 3.49472362,12.9855528 L5.57537688,12.9066583 C6.09535176,12.8869347 6.5008794,12.4494975 6.48128141,11.929397 C6.46155779,11.4094221 6.02298995,11.004397 5.50414573,11.0236181 L3.42336683,11.1025126 Z" id="Shape"></path>
                            </g>
                        </g>
                    </g>
                </g>
            </g>
        </g>
    </g>
</svg>