<?xml version="1.0" encoding="UTF-8"?>
<svg width="20px" height="15px" viewBox="0 0 20 15" version="1.1" xmlns="http://www.w3.org/2000/svg" xmlns:xlink="http://www.w3.org/1999/xlink">
    <!-- Generator: Sketch 47.1 (45422) - http://www.bohemiancoding.com/sketch -->
    <title>Video</title>
    <desc>Created with Sketch.</desc>
    <defs></defs>
    <g id="Google-Dart" stroke="none" stroke-width="1" fill="none" fill-rule="evenodd">
        <g id="iPhone-7---One-pager-Fase-3" transform="translate(-335.000000, -2691.000000)" fill-rule="nonzero" fill="#84D6F6">
            <g id="Program" transform="translate(3.000000, 2589.000000)">
                <g id="Video-link" transform="translate(332.000000, 102.000000)">
                    <g id="Video">
                        <path d="M16.4833333,0.0193333333 L3.48561905,0.0193333333 C1.56361905,0.0193333333 0,1.58342857 0,3.50590476 L0,10.9392381 C0,12.8617143 1.56361905,14.4257143 3.48561905,14.4257143 L16.4834286,14.4257143 C18.4053333,14.4257143 19.9689524,12.8617143 19.9689524,10.9392381 L19.9689524,3.50590476 C19.9688571,1.58342857 18.4052381,0.0193333333 16.4833333,0.0193333333 Z M18.5402857,10.9391429 C18.5402857,12.0739048 17.6175238,12.9970476 16.4833333,12.9970476 L3.48561905,12.9970476 C2.35133333,12.9970476 1.42857143,12.0739048 1.42857143,10.9391429 L1.42857143,3.50580952 C1.42857143,2.37104762 2.35133333,1.44790476 3.48561905,1.44790476 L16.4834286,1.44790476 C17.617619,1.44790476 18.540381,2.37104762 18.540381,3.50580952 L18.540381,10.9391429 L18.5402857,10.9391429 Z" id="Shape"></path>
                        <path d="M13.8185714,6.62571429 L8.52371429,3.1352381 C8.30438095,2.99057143 8.02333333,2.97819048 7.79190476,3.10266667 C7.56057143,3.2272381 7.41628571,3.46885714 7.41628571,3.73161905 L7.41628571,10.7134286 C7.41628571,10.9761905 7.56057143,11.2177143 7.79190476,11.342381 C7.89790476,11.3995238 8.01438095,11.4277143 8.13047619,11.4277143 C8.26780952,11.4277143 8.40485714,11.3881905 8.52371429,11.3097143 L13.8185714,7.81838095 C14.0190476,7.68619048 14.1397143,7.46219048 14.1397143,7.222 C14.1397143,6.98190476 14.0190476,6.75790476 13.8185714,6.62571429 Z M8.84485714,9.38685714 L8.84485714,5.058 L12.1278095,7.22209524 L8.84485714,9.38685714 Z" id="Shape"></path>
                    </g>
                </g>
            </g>
        </g>
    </g>
</svg>