<?xml version="1.0" encoding="utf-8"?>
<!-- Generator: Adobe Illustrator 21.0.2, SVG Export Plug-In . SVG Version: 6.00 Build 0)  -->
<svg version="1.1" id="Layer_1" xmlns="http://www.w3.org/2000/svg" xmlns:xlink="http://www.w3.org/1999/xlink" x="0px" y="0px"
	 viewBox="0 0 60 568.7" style="enable-background:new 0 0 60 568.7;" xml:space="preserve">
<g>
	<path d="M41.7,30.2H20.4v19.6h24.4v1.6h-26V8.7h26v1.6H20.4v18.3h21.4V30.2z"/>
	<path d="M29.2,107.2l0.8,2.6l0.8-2.6l14.3-38.5h1.7L31,111.3H29L13.1,68.7h1.7L29.2,107.2z"/>
	<path d="M41.7,150.2H20.4v19.6h24.4v1.6h-26v-42.7h26v1.6H20.4v18.3h21.4V150.2z"/>
	<path d="M45.4,231.3h-1.6l-27.5-40v40h-1.6v-42.7h1.6l27.5,39.9v-39.9h1.6V231.3z"/>
	<path d="M46.3,250.3H30.8v41.1h-1.6v-41.1H13.7v-1.6h32.6V250.3z"/>
	<path d="M30.8,380h-1.6v-42.7h1.6V380z"/>
	<path d="M45.4,440h-1.6l-27.5-40v40h-1.6v-42.7h1.6l27.5,39.9v-39.9h1.6V440z"/>
	<path d="M42.1,479H20.3v21h-1.6v-42.7h26.4v1.6H20.3v18.5h21.9V479z"/>
	<path d="M46.1,541.9c0,3.7-0.7,7-2,9.8s-3.2,5-5.6,6.6s-5.3,2.3-8.4,2.3c-4.8,0-8.7-1.7-11.7-5.1s-4.5-8-4.5-13.8v-6.2
		c0-3.7,0.7-6.9,2-9.8s3.2-5.1,5.7-6.6c2.5-1.6,5.3-2.3,8.4-2.3c3.2,0,6,0.8,8.5,2.3c2.5,1.6,4.3,3.8,5.7,6.6s2,6.1,2,9.8V541.9z
		 M44.5,535.5c0-5.2-1.3-9.3-3.9-12.4s-6.2-4.7-10.6-4.7c-4.4,0-7.9,1.5-10.5,4.6s-3.9,7.3-3.9,12.6v6.2c0,3.4,0.6,6.4,1.8,9
		c1.2,2.6,2.9,4.6,5.1,6s4.7,2.1,7.7,2.1c4.5,0,8-1.6,10.6-4.7s3.9-7.3,3.9-12.7V535.5z"/>
</g>
</svg>
