<?xml version="1.0" encoding="utf-8"?>
<!-- Generator: Adobe Illustrator 21.0.2, SVG Export Plug-In . SVG Version: 6.00 Build 0)  -->
<svg version="1.1" id="Layer_1" xmlns="http://www.w3.org/2000/svg" xmlns:xlink="http://www.w3.org/1999/xlink" x="0px" y="0px"
	 viewBox="0 0 60 420" style="enable-background:new 0 0 60 420;" xml:space="preserve">
<g>
	<path d="M19.4,33.3v18h-1.6V8.7h13.3c4.4,0,7.7,1.1,10.2,3.3c2.4,2.2,3.6,5.2,3.6,9.2c0,3.9-1.2,6.9-3.5,9c-2.4,2.1-5.7,3.2-10,3.2
		H19.4z M19.4,31.7h11.7c3.8,0,6.8-0.9,9-2.8c2.1-1.9,3.2-4.4,3.2-7.8c0-3.4-1.1-6.1-3.2-8c-2.1-1.9-5.1-2.9-9-2.9H19.4V31.7z"/>
	<path d="M32.5,93.1H17.7v18.3h-1.6V68.7h13.6c4.3,0,7.7,1.1,10.2,3.3c2.5,2.2,3.8,5.2,3.8,9c0,2.9-0.9,5.5-2.7,7.6
		c-1.8,2.2-4.1,3.5-6.9,4.1l11.4,18.3v0.4h-1.7L32.5,93.1z M17.7,91.5h13.4c3.3,0,5.9-1,8-3s3-4.5,3-7.5c0-3.3-1.1-5.9-3.4-7.9
		c-2.2-1.9-5.3-2.9-9.2-2.9H17.7V91.5z"/>
	<path d="M46.1,153.2c0,3.7-0.7,7-2,9.8s-3.2,5-5.6,6.6s-5.3,2.3-8.4,2.3c-4.8,0-8.7-1.7-11.7-5.1s-4.5-8-4.5-13.8v-6.2
		c0-3.7,0.7-6.9,2-9.8s3.2-5.1,5.7-6.6c2.5-1.6,5.3-2.3,8.4-2.3c3.2,0,6,0.8,8.5,2.3c2.5,1.6,4.3,3.8,5.7,6.6s2,6.1,2,9.8V153.2z
		 M44.5,146.7c0-5.2-1.3-9.3-3.9-12.4s-6.2-4.7-10.6-4.7c-4.4,0-7.9,1.5-10.5,4.6s-3.9,7.3-3.9,12.6v6.2c0,3.4,0.6,6.4,1.8,9
		c1.2,2.6,2.9,4.6,5.1,6s4.7,2.1,7.7,2.1c4.5,0,8-1.6,10.6-4.7s3.9-7.3,3.9-12.7V146.7z"/>
	<path d="M45.3,226.8c-1.1,1.5-3,2.7-5.7,3.7s-5.7,1.5-8.9,1.5c-3.2,0-6-0.8-8.5-2.3s-4.4-3.7-5.8-6.5c-1.4-2.8-2.1-6-2.2-9.6v-7.3
		c0-3.5,0.7-6.6,2-9.4s3.2-4.9,5.7-6.4s5.2-2.3,8.2-2.3c4.2,0,7.7,1.1,10.4,3.3s4.2,5.1,4.6,8.9h-1.6c-0.5-3.4-1.9-6-4.2-7.8
		s-5.4-2.7-9.2-2.7c-4.3,0-7.8,1.5-10.4,4.6s-4,7.1-4,12.1v6.8c0,3.3,0.6,6.3,1.9,8.9c1.2,2.6,3,4.6,5.2,6.1s4.8,2.2,7.7,2.2
		c2.9,0,5.5-0.4,7.9-1.3c2.4-0.8,4.1-1.9,5-3.1v-12.4h-13V212h14.6V226.8z"/>
	<path d="M32.5,273.1H17.7v18.3h-1.6v-42.7h13.6c4.3,0,7.7,1.1,10.2,3.3c2.5,2.2,3.8,5.2,3.8,9c0,2.9-0.9,5.5-2.7,7.6
		c-1.8,2.2-4.1,3.5-6.9,4.1l11.4,18.3v0.4h-1.7L32.5,273.1z M17.7,271.5h13.4c3.3,0,5.9-1,8-3s3-4.5,3-7.5c0-3.3-1.1-5.9-3.4-7.9
		c-2.2-1.9-5.3-2.9-9.2-2.9H17.7V271.5z"/>
	<path d="M40.4,338.6H19.5l-4.7,12.7h-1.7l16-42.7H31l16,42.7h-1.7L40.4,338.6z M20.1,337h19.7L30,310.6L20.1,337z"/>
	<path d="M12.4,368.7L29.9,409l17.6-40.3h2.3v42.7h-1.6V371l-17.7,40.3h-1.3l-17.6-40.1v40.1h-1.6v-42.7H12.4z"/>
</g>
</svg>
