<?xml version="1.0" encoding="utf-8"?>
<!-- Generator: Adobe Illustrator 21.0.2, SVG Export Plug-In . SVG Version: 6.00 Build 0)  -->
<svg version="1.1" id="Layer_1" xmlns="http://www.w3.org/2000/svg" xmlns:xlink="http://www.w3.org/1999/xlink" x="0px" y="0px"
	 viewBox="0 0 60 480" style="enable-background:new 0 0 60 480;" xml:space="preserve">
<g>
	<path d="M43.7,41.1c0-1.8-0.4-3.4-1.3-4.6s-2.2-2.4-4-3.3s-4.6-2-8.3-3c-3.7-1-6.5-2-8.3-3.1c-1.8-1-3.2-2.2-4.1-3.6
		c-0.9-1.4-1.3-3-1.3-5c0-3.1,1.3-5.6,3.9-7.5c2.6-1.9,6-2.9,10.2-2.9c2.7,0,5.2,0.5,7.4,1.6c2.2,1.1,3.9,2.6,5.1,4.5
		c1.2,1.9,1.8,4.1,1.8,6.5h-1.6c0-3.2-1.2-5.8-3.5-7.9s-5.4-3.1-9.1-3.1c-3.8,0-6.8,0.8-9.1,2.5S18,15.9,18,18.5c0,2.6,1,4.6,3,6.2
		c2,1.6,5.3,2.9,10,4.1s8,2.6,10.2,4.2c2.7,2,4.1,4.7,4.1,8.1c0,2.1-0.6,4-1.8,5.7c-1.2,1.7-2.9,2.9-5.2,3.8s-4.7,1.3-7.5,1.3
		c-3.1,0-5.9-0.5-8.3-1.5s-4.3-2.5-5.6-4.4c-1.2-1.9-1.9-4.1-1.9-6.7h1.6c0,3.5,1.3,6.2,3.9,8.1c2.6,1.9,6,2.9,10.2,2.9
		c3.7,0,6.8-0.9,9.2-2.6C42.5,46.1,43.7,43.8,43.7,41.1z"/>
	<path d="M19.4,93.3v18h-1.6V68.7h13.3c4.4,0,7.7,1.1,10.2,3.3c2.4,2.2,3.6,5.2,3.6,9.2c0,3.9-1.2,6.9-3.5,9
		c-2.4,2.1-5.7,3.2-10,3.2H19.4z M19.4,91.7h11.7c3.8,0,6.8-0.9,9-2.8c2.1-1.9,3.2-4.4,3.2-7.8c0-3.4-1.1-6.1-3.2-8
		c-2.1-1.9-5.1-2.9-9-2.9H19.4V91.7z"/>
	<path d="M41.7,150.2H20.4v19.6h24.4v1.6h-26v-42.7h26v1.6H20.4v18.3h21.4V150.2z"/>
	<path d="M40.4,218.6H19.5l-4.7,12.7h-1.7l16-42.7H31l16,42.7h-1.7L40.4,218.6z M20.1,217h19.7L30,190.6L20.1,217z"/>
	<path d="M25.2,268.9l-6.8,6.3v16.1h-1.6v-42.7h1.6v24.7l7-6.9l17.7-17.8h2.3l-19,19.1l20.5,23.5h-2.1L25.2,268.9z"/>
	<path d="M41.7,330.2H20.4v19.6h24.4v1.6h-26v-42.7h26v1.6H20.4v18.3h21.4V330.2z"/>
	<path d="M32.5,393.1H17.7v18.3h-1.6v-42.7h13.6c4.3,0,7.7,1.1,10.2,3.3c2.5,2.2,3.8,5.2,3.8,9c0,2.9-0.9,5.5-2.7,7.6
		c-1.8,2.2-4.1,3.5-6.9,4.1l11.4,18.3v0.4h-1.7L32.5,393.1z M17.7,391.5h13.4c3.3,0,5.9-1,8-3s3-4.5,3-7.5c0-3.3-1.1-5.9-3.4-7.9
		c-2.2-1.9-5.3-2.9-9.2-2.9H17.7V391.5z"/>
	<path d="M43.7,461.1c0-1.8-0.4-3.4-1.3-4.6s-2.2-2.4-4-3.3s-4.6-2-8.3-3s-6.5-2-8.3-3.1s-3.2-2.2-4.1-3.6c-0.9-1.4-1.3-3-1.3-5
		c0-3.1,1.3-5.6,3.9-7.5c2.6-1.9,6-2.9,10.2-2.9c2.7,0,5.2,0.5,7.4,1.6s3.9,2.6,5.1,4.5c1.2,1.9,1.8,4.1,1.8,6.5h-1.6
		c0-3.2-1.2-5.8-3.5-7.9s-5.4-3.1-9.1-3.1c-3.8,0-6.8,0.8-9.1,2.5s-3.5,3.8-3.5,6.3c0,2.6,1,4.6,3,6.2c2,1.6,5.3,2.9,10,4.1
		s8,2.6,10.2,4.2c2.7,2,4.1,4.7,4.1,8.1c0,2.1-0.6,4-1.8,5.7c-1.2,1.7-2.9,2.9-5.2,3.8s-4.7,1.3-7.5,1.3c-3.1,0-5.9-0.5-8.3-1.5
		s-4.3-2.5-5.6-4.4s-1.9-4.1-1.9-6.7h1.6c0,3.5,1.3,6.2,3.9,8.1c2.6,1.9,6,2.9,10.2,2.9c3.7,0,6.8-0.9,9.2-2.6
		C42.5,466.1,43.7,463.8,43.7,461.1z"/>
</g>
</svg>
