<?xml version="1.0" encoding="utf-8"?>
<!-- Generator: Adobe Illustrator 19.2.1, SVG Export Plug-In . SVG Version: 6.00 Build 0)  -->
<!DOCTYPE svg PUBLIC "-//W3C//DTD SVG 1.1//EN" "http://www.w3.org/Graphics/SVG/1.1/DTD/svg11.dtd">
<svg version="1.1" id="Layer_1" xmlns="http://www.w3.org/2000/svg" xmlns:xlink="http://www.w3.org/1999/xlink" x="0px" y="0px"
	 viewBox="0 0 24 24" enable-background="new 0 0 24 24" xml:space="preserve">
<path d="M12,1C7.5,1,3.9,4.6,3.9,9.1c0,1.2,0.2,2.3,0.7,3.3c2,4.4,5.9,9.1,7,10.4c0.1,0.1,0.2,0.2,0.3,0.2
	c0.1,0,0.3-0.1,0.3-0.2c1.1-1.3,5-6,7-10.4c0.5-1,0.7-2.1,0.7-3.3C20.1,4.6,16.5,1,12,1z M12,13.3c-2.3,0-4.2-1.9-4.2-4.2
	c0-2.3,1.9-4.2,4.2-4.2s4.2,1.9,4.2,4.2C16.2,11.4,14.3,13.3,12,13.3z"/>
</svg>
