<?xml version="1.0" encoding="utf-8"?>
<!-- Generator: Adobe Illustrator 19.2.1, SVG Export Plug-In . SVG Version: 6.00 Build 0)  -->
<!DOCTYPE svg PUBLIC "-//W3C//DTD SVG 1.1//EN" "http://www.w3.org/Graphics/SVG/1.1/DTD/svg11.dtd">
<svg version="1.1" id="Layer_1" xmlns="http://www.w3.org/2000/svg" xmlns:xlink="http://www.w3.org/1999/xlink" x="0px" y="0px"
	 viewBox="0 0 24 24" enable-background="new 0 0 24 24" xml:space="preserve">
<g>
	<path d="M24,12c0-6.6-5.4-12-12-12S0,5.4,0,12s5.4,12,12,12S24,18.6,24,12z M0.8,12c0-6.2,5-11.2,11.2-11.2
		s11.2,5,11.2,11.2s-5,11.2-11.2,11.2S0.8,18.2,0.8,12z"/>
	<path d="M16.4,10.8c0.2-0.2,0.2-0.4,0-0.6c-0.1-0.2-0.4-0.2-0.5,0l-3.7,3.7l-3.7-3.7c-0.2-0.2-0.4-0.2-0.6,0
		c-0.1,0.1-0.1,0.2-0.1,0.3s0,0.2,0.1,0.3l4,4c0.2,0.2,0.4,0.2,0.6,0L16.4,10.8z"/>
</g>
</svg>
